0
SECTION
2
HEADER
9
$INSUNITS
70
4
9
$ACADVER
1
AC1014
9
$HANDSEED
5
FFFF
0
ENDSEC
0
SECTION
2
TABLES
0
TABLE
2
VPORT
5
8
100
AcDbSymbolTable
0
ENDTAB
0
TABLE
2
LTYPE
5
5
100
AcDbSymbolTable
0
LTYPE
5
14
100
AcDbSymbolTableRecord
100
AcDbLinetypeTableRecord
2
BYBLOCK
70
0
0
LTYPE
5
15
100
AcDbSymbolTableRecord
100
AcDbLinetypeTableRecord
2
BYLAYER
70
0
0
ENDTAB
0
TABLE
2
LAYER
5
2
100
AcDbSymbolTable
70
2
0
LAYER
5
50
100
AcDbSymbolTableRecord
100
AcDbLayerTableRecord
2
0
70
0
6
CONTINUOUS
0
ENDTAB
0
TABLE
2
STYLE
5
3
100
AcDbSymbolTable
70
1
0
STYLE
5
11
100
AcDbSymbolTableRecord
100
AcDbTextStyleTableRecord
2
STANDARD
70
0
0
ENDTAB
0
TABLE
2
VIEW
5
6
100
AcDbSymbolTable
70
0
0
ENDTAB
0
TABLE
2
UCS
5
7
100
AcDbSymbolTable
70
0
0
ENDTAB
0
TABLE
2
APPID
5
9
100
AcDbSymbolTable
70
2
0
APPID
5
12
100
AcDbSymbolTableRecord
100
AcDbRegAppTableRecord
2
ACAD
70
0
0
ENDTAB
0
TABLE
2
DIMSTYLE
5
A
100
AcDbSymbolTable
70
1
0
ENDTAB
0
TABLE
2
BLOCK_RECORD
5
1
100
AcDbSymbolTable
70
1
0
BLOCK_RECORD
5
1F
100
AcDbSymbolTableRecord
100
AcDbBlockTableRecord
2
*MODEL_SPACE
0
BLOCK_RECORD
5
1B
100
AcDbSymbolTableRecord
100
AcDbBlockTableRecord
2
*PAPER_SPACE
0
ENDTAB
0
ENDSEC
0
SECTION
2
BLOCKS
0
BLOCK
5
20
100
AcDbEntity
100
AcDbBlockBegin
2
*MODEL_SPACE
0
ENDBLK
5
21
100
AcDbEntity
100
AcDbBlockEnd
0
BLOCK
5
1C
100
AcDbEntity
100
AcDbBlockBegin
2
*PAPER_SPACE
0
ENDBLK
5
1D
100
AcDbEntity
100
AcDbBlockEnd
0
ENDSEC
0
SECTION
2
ENTITIES
0
LWPOLYLINE
5
100
100
AcDbEntity
8
0
100
AcDbPolyline
90
4
70
1
43
0.0
10
-2.3014915758351773
20
-276.66026715273279
10
-62.301491575835186
20
-276.66026715273279
42
0.99999999999999989
10
-62.301491575835186
20
-280.66026715273273
10
-2.3014915758351773
20
-280.66026715273273
42
0.99999999999999989
0
CIRCLE
5
101
100
AcDbEntity
8
0
100
AcDbCircle
10
-174.09124169908171
20
-294.39000461159435
30
0
40
5
210
0
220
-0
230
1
0
CIRCLE
5
102
100
AcDbEntity
8
0
100
AcDbCircle
10
-154.09124169908185
20
-274.39000461159435
30
0
40
5
210
0
220
-0
230
1
0
CIRCLE
5
103
100
AcDbEntity
8
0
100
AcDbCircle
10
-194.09124169908176
20
-234.39000461159441
30
0
40
5
210
0
220
-0
230
1
0
LWPOLYLINE
5
104
100
AcDbEntity
8
0
100
AcDbPolyline
90
4
70
1
43
0.0
10
-64.301491575835271
20
-146.66026715273267
10
-124.30149157583529
20
-146.66026715273267
42
0.99999999999999989
10
-124.30149157583529
20
-150.66026715273264
10
-64.301491575835271
20
-150.66026715273264
42
0.99999999999999989
0
CIRCLE
5
105
100
AcDbEntity
8
0
100
AcDbCircle
10
-194.09124169908182
20
-144.39000461159429
30
0
40
5
210
0
220
-0
230
1
0
CIRCLE
5
106
100
AcDbEntity
8
0
100
AcDbCircle
10
-174.09124169908179
20
-124.39000461159431
30
0
40
5
210
0
220
-0
230
1
0
CIRCLE
5
107
100
AcDbEntity
8
0
100
AcDbCircle
10
-154.09124169908188
20
-104.39000461159429
30
0
40
5.0000000000000178
210
0
220
-0
230
1
0
CIRCLE
5
108
100
AcDbEntity
8
0
100
AcDbCircle
10
-194.09124169908182
20
-124.39000461159425
30
0
40
5
210
0
220
-0
230
1
0
CIRCLE
5
109
100
AcDbEntity
8
0
100
AcDbCircle
10
-174.09124169908176
20
-144.39000461159429
30
0
40
5
210
0
220
-0
230
1
0
CIRCLE
5
110
100
AcDbEntity
8
0
100
AcDbCircle
10
-154.09124169908188
20
-164.39000461159426
30
0
40
5
210
0
220
-0
230
1
0
CIRCLE
5
111
100
AcDbEntity
8
0
100
AcDbCircle
10
-174.09124169908179
20
-234.39000461159446
30
0
40
5
210
0
220
-0
230
1
0
CIRCLE
5
112
100
AcDbEntity
8
0
100
AcDbCircle
10
-154.09124169908185
20
-254.39000461159438
30
0
40
5.0000000000000178
210
0
220
-0
230
1
0
CIRCLE
5
113
100
AcDbEntity
8
0
100
AcDbCircle
10
-194.09124169908176
20
-294.39000461159435
30
0
40
5
210
0
220
-0
230
1
0
LWPOLYLINE
5
114
100
AcDbEntity
8
0
100
AcDbPolyline
90
4
70
1
43
0.0
10
-2.3014915758351862
20
-246.66026715273273
10
-62.301491575835186
20
-246.66026715273273
42
0.99999999999999989
10
-62.301491575835186
20
-250.6602671527327
10
-2.3014915758351817
20
-250.6602671527327
42
0.99999999999999989
0
CIRCLE
5
115
100
AcDbEntity
8
0
100
AcDbCircle
10
-154.09124169908185
20
-294.39000461159435
30
0
40
5
210
0
220
-0
230
1
0
CIRCLE
5
116
100
AcDbEntity
8
0
100
AcDbCircle
10
-174.09124169908171
20
-274.39000461159441
30
0
40
5
210
0
220
-0
230
1
0
CIRCLE
5
117
100
AcDbEntity
8
0
100
AcDbCircle
10
-194.09124169908179
20
-254.39000461159438
30
0
40
5
210
0
220
-0
230
1
0
LWPOLYLINE
5
118
100
AcDbEntity
8
0
100
AcDbPolyline
90
4
70
1
43
0.0
10
-64.301491575835257
20
-116.66026715273264
10
-124.30149157583526
20
-116.66026715273264
42
0.99999999999999989
10
-124.30149157583526
20
-120.66026715273264
10
-64.301491575835257
20
-120.66026715273264
42
0.99999999999999989
0
CIRCLE
5
119
100
AcDbEntity
8
0
100
AcDbCircle
10
-194.09124169908179
20
-164.39000461159426
30
0
40
5
210
0
220
-0
230
1
0
CIRCLE
5
120
100
AcDbEntity
8
0
100
AcDbCircle
10
-154.09124169908188
20
-124.39000461159429
30
0
40
5.0000000000000178
210
0
220
-0
230
1
0
CIRCLE
5
121
100
AcDbEntity
8
0
100
AcDbCircle
10
-174.09124169908182
20
-104.39000461159432
30
0
40
5
210
0
220
-0
230
1
0
CIRCLE
5
122
100
AcDbEntity
8
0
100
AcDbCircle
10
-194.09124169908179
20
-104.39000461159431
30
0
40
5
210
0
220
-0
230
1
0
CIRCLE
5
123
100
AcDbEntity
8
0
100
AcDbCircle
10
-154.09124169908188
20
-144.39000461159429
30
0
40
5
210
0
220
-0
230
1
0
CIRCLE
5
124
100
AcDbEntity
8
0
100
AcDbCircle
10
-174.09124169908176
20
-164.39000461159426
30
0
40
5
210
0
220
-0
230
1
0
CIRCLE
5
125
100
AcDbEntity
8
0
100
AcDbCircle
10
-154.09124169908185
20
-234.39000461159438
30
0
40
5.0000000000000178
210
0
220
-0
230
1
0
CIRCLE
5
126
100
AcDbEntity
8
0
100
AcDbCircle
10
-174.09124169908176
20
-254.39000461159441
30
0
40
5
210
0
220
-0
230
1
0
CIRCLE
5
127
100
AcDbEntity
8
0
100
AcDbCircle
10
-194.09124169908179
20
-274.39000461159441
30
0
40
5
210
0
220
-0
230
1
0
LWPOLYLINE
5
128
100
AcDbEntity
8
0
100
AcDbPolyline
90
4
70
1
43
0.0
10
46.698508424164856
20
-222.16026715273273
10
-13.301491575835156
20
-222.16026715273273
42
0.99999999999999989
10
-13.301491575835156
20
-226.16026715273273
10
46.698508424164856
20
-226.16026715273273
42
0.99999999999999989
0
LWPOLYLINE
5
129
100
AcDbEntity
8
0
100
AcDbPolyline
90
16
70
1
43
0.0
10
-222.29999473690953
20
-301.49999286979437
10
-224.79999473690953
20
-301.49999286979437
10
-224.79999473690953
20
-25.999999418854713
10
-192.35489887720928
20
-25.999999418854742
10
-192.35489887720928
20
-38.499999418854735
42
0.4142135623730962
10
-179.85489887720928
20
-50.999999418854728
10
-114.85489887720928
20
-50.999999418854728
42
0.41421356237309498
10
-102.35489887720928
20
-38.499999418854735
10
-102.35489887720928
20
-25.999999418854742
10
68.199998445809229
20
-25.999999418854784
10
68.199998445809229
20
-301.49999286979437
10
65.699998445809229
20
-301.49999286979437
42
0.41421356237310125
10
63.199998445809236
20
-303.99999286979437
10
63.199998445809236
20
-318.99999286979437
10
-219.79999473690953
20
-318.99999286979437
10
-219.79999473690953
20
-303.99999286979437
42
0.41421356237310336
0
LINE
5
130
100
AcDbEntity
8
0
100
AcDbLine
10
-222.29999473690953
20
-301.49999286979437
30
-6.4999999999999858
11
-224.79999473690953
21
-301.49999286979437
31
-6.4999999999999858
0
LINE
5
131
100
AcDbEntity
8
0
100
AcDbLine
10
-224.79999473690953
20
-301.49999286979437
30
-6.4999999999999858
11
-224.79999473690953
21
-25.999999418854713
31
-6.4999999999999858
0
LINE
5
132
100
AcDbEntity
8
0
100
AcDbLine
10
-224.79999473690953
20
-25.999999418854713
30
-6.4999999999999858
11
-192.35489887720928
21
-25.999999418854742
31
-6.4999999999999858
0
LINE
5
133
100
AcDbEntity
8
0
100
AcDbLine
10
-192.35489887720928
20
-25.999999418854742
30
-6.4999999999999858
11
-192.35489887720928
21
-38.499999418854735
31
-6.4999999999999858
0
ARC
5
134
100
AcDbEntity
8
0
100
AcDbCircle
10
-179.85489887720928
20
-38.499999418854735
30
-6.4999999999999858
40
12.5
210
0
220
-2.0773842430225336e-32
230
1
100
AcDbArc
50
180
51
270
0
LINE
5
135
100
AcDbEntity
8
0
100
AcDbLine
10
-179.85489887720928
20
-50.999999418854728
30
-6.4999999999999858
11
-114.85489887720928
21
-50.999999418854728
31
-6.4999999999999858
0
ARC
5
136
100
AcDbEntity
8
0
100
AcDbCircle
10
-114.85489887720928
20
-38.499999418854735
30
-6.4999999999999858
40
12.499999999999996
210
2.3296483660392428e-16
220
0
230
1
100
AcDbArc
50
-90
51
0
0
LINE
5
137
100
AcDbEntity
8
0
100
AcDbLine
10
-102.35489887720928
20
-38.499999418854735
30
-6.4999999999999893
11
-102.35489887720928
21
-25.999999418854742
31
-6.4999999999999858
0
LINE
5
138
100
AcDbEntity
8
0
100
AcDbLine
10
-102.35489887720928
20
-25.999999418854742
30
-6.4999999999999858
11
68.199998445809229
21
-25.999999418854784
31
-6.5000000000000568
0
LINE
5
139
100
AcDbEntity
8
0
100
AcDbLine
10
68.199998445809229
20
-25.999999418854784
30
-6.5000000000000568
11
68.199998445809229
21
-301.49999286979437
31
-6.4999999999999858
0
LINE
5
140
100
AcDbEntity
8
0
100
AcDbLine
10
68.199998445809229
20
-301.49999286979437
30
-6.4999999999999858
11
65.699998445809229
21
-301.49999286979437
31
-6.4999999999999858
0
ARC
5
141
100
AcDbEntity
8
0
100
AcDbCircle
10
65.699998445809229
20
-303.99999286979437
30
-6.4999999999999858
40
2.5
210
2.3296483660392428e-16
220
-0
230
1
100
AcDbArc
50
90
51
180
0
LINE
5
142
100
AcDbEntity
8
0
100
AcDbLine
10
63.199998445809236
20
-303.99999286979437
30
-6.4999999999999849
11
63.199998445809236
21
-318.99999286979437
31
-6.4999999999999858
0
LINE
5
143
100
AcDbEntity
8
0
100
AcDbLine
10
63.199998445809236
20
-318.99999286979437
30
-6.4999999999999858
11
-219.79999473690953
21
-318.99999286979437
31
-6.4999999999999858
0
LINE
5
144
100
AcDbEntity
8
0
100
AcDbLine
10
-219.79999473690953
20
-318.99999286979437
30
-6.4999999999999858
11
-219.79999473690953
21
-303.99999286979437
31
-6.4999999999999858
0
ARC
5
145
100
AcDbEntity
8
0
100
AcDbCircle
10
-222.29999473690953
20
-303.99999286979437
30
-6.4999999999999858
40
2.5
210
0
220
-4.9303806576313238e-32
230
1
100
AcDbArc
50
0
51
90
0
LINE
5
146
100
AcDbEntity
8
0
100
AcDbLine
10
-2.3014915758351773
20
-276.66026715273279
30
-6.4999999999999858
11
-62.301491575835186
21
-276.66026715273279
31
-6.4999999999999858
0
ARC
5
147
100
AcDbEntity
8
0
100
AcDbCircle
10
-62.301491575835186
20
-278.66026715273273
30
-6.4999999999999858
40
1.9999999999999929
210
2.3296483660392428e-16
220
-0
230
1
100
AcDbArc
50
90
51
270
0
LINE
5
148
100
AcDbEntity
8
0
100
AcDbLine
10
-62.301491575835186
20
-280.66026715273273
30
-6.4999999999999858
11
-2.3014915758351773
21
-280.66026715273273
31
-6.4999999999999858
0
ARC
5
149
100
AcDbEntity
8
0
100
AcDbCircle
10
-2.3014915758351773
20
-278.66026715273273
30
-6.4999999999999858
40
1.9999999999999929
210
2.3296483660392428e-16
220
0
230
1
100
AcDbArc
50
-90
51
90
0
CIRCLE
5
150
100
AcDbEntity
8
0
100
AcDbCircle
10
-174.09124169908171
20
-294.39000461159435
30
-6.4999999999999858
40
5
210
2.4035605705952752e-31
220
-4.9303806576313238e-32
230
1
0
CIRCLE
5
151
100
AcDbEntity
8
0
100
AcDbCircle
10
-154.09124169908185
20
-274.39000461159435
30
-6.4999999999999858
40
5
210
2.4035605705952752e-31
220
-4.9303806576313238e-32
230
1
0
CIRCLE
5
152
100
AcDbEntity
8
0
100
AcDbCircle
10
-194.09124169908176
20
-234.39000461159441
30
-6.4999999999999858
40
5
210
2.4035605705952752e-31
220
-4.9303806576313238e-32
230
1
0
LINE
5
153
100
AcDbEntity
8
0
100
AcDbLine
10
-64.301491575835271
20
-146.66026715273267
30
-6.4999999999999858
11
-124.30149157583529
21
-146.66026715273267
31
-6.4999999999999858
0
ARC
5
154
100
AcDbEntity
8
0
100
AcDbCircle
10
-124.30149157583529
20
-148.66026715273267
30
-6.4999999999999858
40
1.9999999999999929
210
2.3296483660392428e-16
220
-0
230
1
100
AcDbArc
50
90
51
270
0
LINE
5
155
100
AcDbEntity
8
0
100
AcDbLine
10
-124.30149157583529
20
-150.66026715273264
30
-6.4999999999999858
11
-64.301491575835271
21
-150.66026715273264
31
-6.4999999999999858
0
ARC
5
156
100
AcDbEntity
8
0
100
AcDbCircle
10
-64.301491575835271
20
-148.66026715273267
30
-6.4999999999999858
40
1.9999999999999929
210
2.3296483660392428e-16
220
0
230
1
100
AcDbArc
50
-90
51
90
0
CIRCLE
5
157
100
AcDbEntity
8
0
100
AcDbCircle
10
-194.09124169908182
20
-144.39000461159429
30
-6.4999999999999858
40
5
210
2.4035605705952752e-31
220
-4.9303806576313238e-32
230
1
0
CIRCLE
5
158
100
AcDbEntity
8
0
100
AcDbCircle
10
-174.09124169908179
20
-124.39000461159431
30
-6.4999999999999858
40
5
210
2.4035605705952752e-31
220
-4.9303806576313238e-32
230
1
0
CIRCLE
5
159
100
AcDbEntity
8
0
100
AcDbCircle
10
-154.09124169908188
20
-104.39000461159429
30
-6.4999999999999858
40
5.0000000000000178
210
2.4035605705952752e-31
220
-4.9303806576313238e-32
230
1
0
CIRCLE
5
160
100
AcDbEntity
8
0
100
AcDbCircle
10
-194.09124169908182
20
-124.39000461159425
30
-6.4999999999999858
40
5
210
2.4035605705952752e-31
220
-4.9303806576313238e-32
230
1
0
CIRCLE
5
161
100
AcDbEntity
8
0
100
AcDbCircle
10
-174.09124169908176
20
-144.39000461159429
30
-6.4999999999999858
40
5
210
2.4035605705952752e-31
220
-4.9303806576313238e-32
230
1
0
CIRCLE
5
162
100
AcDbEntity
8
0
100
AcDbCircle
10
-154.09124169908188
20
-164.39000461159426
30
-6.4999999999999858
40
5
210
2.4035605705952752e-31
220
-4.9303806576313238e-32
230
1
0
CIRCLE
5
163
100
AcDbEntity
8
0
100
AcDbCircle
10
-174.09124169908179
20
-234.39000461159446
30
-6.4999999999999858
40
5
210
2.4035605705952752e-31
220
-4.9303806576313238e-32
230
1
0
CIRCLE
5
164
100
AcDbEntity
8
0
100
AcDbCircle
10
-154.09124169908185
20
-254.39000461159438
30
-6.4999999999999858
40
5.0000000000000178
210
2.4035605705952752e-31
220
-4.9303806576313238e-32
230
1
0
CIRCLE
5
165
100
AcDbEntity
8
0
100
AcDbCircle
10
-194.09124169908176
20
-294.39000461159435
30
-6.4999999999999858
40
5
210
2.4035605705952752e-31
220
-4.9303806576313238e-32
230
1
0
LINE
5
166
100
AcDbEntity
8
0
100
AcDbLine
10
-2.3014915758351817
20
-246.66026715273273
30
-6.4999999999999858
11
-62.301491575835186
21
-246.66026715273273
31
-6.4999999999999858
0
ARC
5
167
100
AcDbEntity
8
0
100
AcDbCircle
10
-62.301491575835186
20
-248.66026715273273
30
-6.4999999999999858
40
1.9999999999999929
210
2.3296483660392428e-16
220
-0
230
1
100
AcDbArc
50
90
51
270
0
LINE
5
168
100
AcDbEntity
8
0
100
AcDbLine
10
-62.301491575835186
20
-250.6602671527327
30
-6.4999999999999858
11
-2.3014915758351862
21
-250.6602671527327
31
-6.4999999999999858
0
ARC
5
169
100
AcDbEntity
8
0
100
AcDbCircle
10
-2.3014915758351817
20
-248.66026715273273
30
-6.4999999999999858
40
1.9999999999999929
210
2.3296483660392379e-16
220
-5.1728585105142909e-31
230
1
100
AcDbArc
50
-90.000000000000099
51
90
0
CIRCLE
5
170
100
AcDbEntity
8
0
100
AcDbCircle
10
-154.09124169908185
20
-294.39000461159435
30
-6.4999999999999858
40
5
210
2.4035605705952752e-31
220
-4.9303806576313238e-32
230
1
0
CIRCLE
5
171
100
AcDbEntity
8
0
100
AcDbCircle
10
-174.09124169908171
20
-274.39000461159441
30
-6.4999999999999858
40
5
210
2.4035605705952752e-31
220
-4.9303806576313238e-32
230
1
0
CIRCLE
5
172
100
AcDbEntity
8
0
100
AcDbCircle
10
-194.09124169908179
20
-254.39000461159438
30
-6.4999999999999858
40
5
210
2.4035605705952752e-31
220
-4.9303806576313238e-32
230
1
0
LINE
5
173
100
AcDbEntity
8
0
100
AcDbLine
10
-64.301491575835257
20
-116.66026715273264
30
-6.4999999999999858
11
-124.30149157583526
21
-116.66026715273264
31
-6.4999999999999858
0
ARC
5
174
100
AcDbEntity
8
0
100
AcDbCircle
10
-124.30149157583526
20
-118.66026715273264
30
-6.4999999999999858
40
1.9999999999999929
210
2.3296483660392428e-16
220
-0
230
1
100
AcDbArc
50
90
51
270
0
LINE
5
175
100
AcDbEntity
8
0
100
AcDbLine
10
-124.30149157583526
20
-120.66026715273264
30
-6.4999999999999858
11
-64.301491575835257
21
-120.66026715273264
31
-6.4999999999999858
0
ARC
5
176
100
AcDbEntity
8
0
100
AcDbCircle
10
-64.301491575835257
20
-118.66026715273264
30
-6.4999999999999858
40
1.9999999999999929
210
2.3296483660392428e-16
220
0
230
1
100
AcDbArc
50
-90
51
90
0
CIRCLE
5
177
100
AcDbEntity
8
0
100
AcDbCircle
10
-194.09124169908179
20
-164.39000461159426
30
-6.4999999999999858
40
5
210
2.4035605705952752e-31
220
-4.9303806576313238e-32
230
1
0
CIRCLE
5
178
100
AcDbEntity
8
0
100
AcDbCircle
10
-154.09124169908188
20
-124.39000461159429
30
-6.4999999999999858
40
5.0000000000000178
210
2.4035605705952752e-31
220
-4.9303806576313238e-32
230
1
0
CIRCLE
5
179
100
AcDbEntity
8
0
100
AcDbCircle
10
-174.09124169908182
20
-104.39000461159432
30
-6.4999999999999858
40
5
210
2.4035605705952752e-31
220
-4.9303806576313238e-32
230
1
0
CIRCLE
5
180
100
AcDbEntity
8
0
100
AcDbCircle
10
-194.09124169908179
20
-104.39000461159431
30
-6.4999999999999858
40
5
210
2.4035605705952752e-31
220
-4.9303806576313238e-32
230
1
0
CIRCLE
5
181
100
AcDbEntity
8
0
100
AcDbCircle
10
-154.09124169908188
20
-144.39000461159429
30
-6.4999999999999858
40
5
210
2.4035605705952752e-31
220
-4.9303806576313238e-32
230
1
0
CIRCLE
5
182
100
AcDbEntity
8
0
100
AcDbCircle
10
-174.09124169908176
20
-164.39000461159426
30
-6.4999999999999858
40
5
210
2.4035605705952752e-31
220
-4.9303806576313238e-32
230
1
0
CIRCLE
5
183
100
AcDbEntity
8
0
100
AcDbCircle
10
-154.09124169908185
20
-234.39000461159438
30
-6.4999999999999858
40
5.0000000000000178
210
2.4035605705952752e-31
220
-4.9303806576313238e-32
230
1
0
CIRCLE
5
184
100
AcDbEntity
8
0
100
AcDbCircle
10
-174.09124169908176
20
-254.39000461159441
30
-6.4999999999999858
40
5
210
2.4035605705952752e-31
220
-4.9303806576313238e-32
230
1
0
CIRCLE
5
185
100
AcDbEntity
8
0
100
AcDbCircle
10
-194.09124169908179
20
-274.39000461159441
30
-6.4999999999999858
40
5
210
2.4035605705952752e-31
220
-4.9303806576313238e-32
230
1
0
LINE
5
186
100
AcDbEntity
8
0
100
AcDbLine
10
46.698508424164856
20
-222.16026715273273
30
-6.4999999999999858
11
-13.301491575835156
21
-222.16026715273273
31
-6.4999999999999858
0
ARC
5
187
100
AcDbEntity
8
0
100
AcDbCircle
10
-13.301491575835156
20
-224.16026715273273
30
-6.4999999999999858
40
1.9999999999999929
210
2.3296483660392428e-16
220
-0
230
1
100
AcDbArc
50
90
51
270
0
LINE
5
188
100
AcDbEntity
8
0
100
AcDbLine
10
-13.301491575835156
20
-226.16026715273273
30
-6.4999999999999858
11
46.698508424164856
21
-226.16026715273273
31
-6.4999999999999858
0
ARC
5
189
100
AcDbEntity
8
0
100
AcDbCircle
10
46.698508424164856
20
-224.16026715273273
30
-6.4999999999999858
40
1.9999999999999929
210
2.3296483660392428e-16
220
0
230
1
100
AcDbArc
50
-90
51
90
0
ENDSEC
0
SECTION
2
OBJECTS
0
DICTIONARY
5
C
100
AcDbDictionary
3
ACAD_GROUP
350
D
3
ACAD_MLINESTYLE
350
17
0
DICTIONARY
5
D
100
AcDbDictionary
0
DICTIONARY
5
1A
330
C
100
AcDbDictionary
0
DICTIONARY
5
17
100
AcDbDictionary
0
ENDSEC
0
EOF
