0
SECTION
2
HEADER
9
$INSUNITS
70
4
9
$ACADVER
1
AC1014
9
$HANDSEED
5
FFFF
0
ENDSEC
0
SECTION
2
TABLES
0
TABLE
2
VPORT
5
8
100
AcDbSymbolTable
0
ENDTAB
0
TABLE
2
LTYPE
5
5
100
AcDbSymbolTable
0
LTYPE
5
14
100
AcDbSymbolTableRecord
100
AcDbLinetypeTableRecord
2
BYBLOCK
70
0
0
LTYPE
5
15
100
AcDbSymbolTableRecord
100
AcDbLinetypeTableRecord
2
BYLAYER
70
0
0
ENDTAB
0
TABLE
2
LAYER
5
2
100
AcDbSymbolTable
70
2
0
LAYER
5
50
100
AcDbSymbolTableRecord
100
AcDbLayerTableRecord
2
0
70
0
6
CONTINUOUS
0
ENDTAB
0
TABLE
2
STYLE
5
3
100
AcDbSymbolTable
70
1
0
STYLE
5
11
100
AcDbSymbolTableRecord
100
AcDbTextStyleTableRecord
2
STANDARD
70
0
0
ENDTAB
0
TABLE
2
VIEW
5
6
100
AcDbSymbolTable
70
0
0
ENDTAB
0
TABLE
2
UCS
5
7
100
AcDbSymbolTable
70
0
0
ENDTAB
0
TABLE
2
APPID
5
9
100
AcDbSymbolTable
70
2
0
APPID
5
12
100
AcDbSymbolTableRecord
100
AcDbRegAppTableRecord
2
ACAD
70
0
0
ENDTAB
0
TABLE
2
DIMSTYLE
5
A
100
AcDbSymbolTable
70
1
0
ENDTAB
0
TABLE
2
BLOCK_RECORD
5
1
100
AcDbSymbolTable
70
1
0
BLOCK_RECORD
5
1F
100
AcDbSymbolTableRecord
100
AcDbBlockTableRecord
2
*MODEL_SPACE
0
BLOCK_RECORD
5
1B
100
AcDbSymbolTableRecord
100
AcDbBlockTableRecord
2
*PAPER_SPACE
0
ENDTAB
0
ENDSEC
0
SECTION
2
BLOCKS
0
BLOCK
5
20
100
AcDbEntity
100
AcDbBlockBegin
2
*MODEL_SPACE
0
ENDBLK
5
21
100
AcDbEntity
100
AcDbBlockEnd
0
BLOCK
5
1C
100
AcDbEntity
100
AcDbBlockBegin
2
*PAPER_SPACE
0
ENDBLK
5
1D
100
AcDbEntity
100
AcDbBlockEnd
0
ENDSEC
0
SECTION
2
ENTITIES
0
LWPOLYLINE
5
100
100
AcDbEntity
8
0
100
AcDbPolyline
90
4
70
1
43
0.0
10
-196.54999880790709
20
-303.10000271201147
10
-196.54999880790706
20
-293.10000271201136
42
0.99999999999999989
10
-200.04999880790706
20
-293.10000271201125
10
-200.04999880790703
20
-303.10000271201136
42
0.99999999999999989
0
LWPOLYLINE
5
101
100
AcDbEntity
8
0
100
AcDbPolyline
90
4
70
1
43
0.0
10
55.450001013279042
20
-303.10000271201136
10
55.450001013279049
20
-293.10000271201136
42
0.99999999999999989
10
51.950001013279092
20
-293.10000271201136
10
51.950001013279099
20
-303.10000271201136
42
0.99999999999999989
0
CIRCLE
5
102
100
AcDbEntity
8
0
100
AcDbCircle
10
-145.30027110055707
20
-214.99990882772241
30
0
40
1.9499999999999316
210
-0
220
0
230
1
0
CIRCLE
5
103
100
AcDbEntity
8
0
100
AcDbCircle
10
-145.3002711005571
20
-90.999908827722408
30
0
40
1.9499999999999316
210
-0
220
0
230
1
0
CIRCLE
5
104
100
AcDbEntity
8
0
100
AcDbCircle
10
-110.30027110055705
20
-259.99990882772238
30
0
40
1.9499999999999316
210
-0
220
0
230
1
0
LWPOLYLINE
5
105
100
AcDbEntity
8
0
100
AcDbPolyline
90
4
70
1
43
0.0
10
-213.25000000000091
20
-52.250000044703455
10
-209.25000000000014
20
-52.250000044704038
42
0.99999999999999989
10
-209.25000000000014
20
-48.750000044704045
10
-213.25000000000091
20
-48.750000044703455
42
0.99999999999999989
0
LWPOLYLINE
5
106
100
AcDbEntity
8
0
100
AcDbPolyline
90
4
70
1
43
0.0
10
64.749999999999204
20
-52.250000044703413
10
68.749999999999972
20
-52.250000044703995
42
0.99999999999999989
10
68.749999999999972
20
-48.750000044704002
10
64.749999999999204
20
-48.750000044703413
42
0.99999999999999989
0
LWPOLYLINE
5
107
100
AcDbEntity
8
0
100
AcDbPolyline
90
4
70
1
43
0.0
10
80.699998207390308
20
-19.9999995529652
10
80.699998207390308
20
-324.99999273568392
10
-225.29999497532845
20
-324.99999273568392
10
-225.29999497532845
20
-19.999999552965164
0
LINE
5
108
100
AcDbEntity
8
0
100
AcDbLine
10
-196.54999880790709
20
-303.10000271201147
30
-6.4999999999999503
11
-196.54999880790706
21
-293.10000271201136
31
-6.4999999999999503
0
ARC
5
109
100
AcDbEntity
8
0
100
AcDbCircle
10
-198.29999880790706
20
-293.1000027120113
30
-6.5000000000000213
40
1.7500000000000071
210
-4.0602442043434133e-14
220
8.2664388526430603e-28
230
1
100
AcDbArc
50
0
51
180
0
LINE
5
110
100
AcDbEntity
8
0
100
AcDbLine
10
-200.04999880790706
20
-293.10000271201125
30
-6.5000000000000213
11
-200.04999880790703
21
-303.10000271201136
31
-6.4999999999999503
0
ARC
5
111
100
AcDbEntity
8
0
100
AcDbCircle
10
-198.29999880790706
20
-303.10000271201142
30
-6.5000000000000213
40
1.7499999999999716
210
4.0602442043434954e-14
220
-1.6438288292523098e-27
230
1
100
AcDbArc
50
180
51
360
0
LINE
5
112
100
AcDbEntity
8
0
100
AcDbLine
10
55.450001013279042
20
-303.10000271201136
30
-6.4999999999999503
11
55.450001013279049
21
-293.10000271201136
31
-6.4999999999999503
0
ARC
5
113
100
AcDbEntity
8
0
100
AcDbCircle
10
53.700001013279071
20
-293.10000271201136
30
-6.5000000000000213
40
1.7499999999999805
210
-4.0602442043434752e-14
220
0
230
1
100
AcDbArc
50
0
51
180
0
LINE
5
114
100
AcDbEntity
8
0
100
AcDbLine
10
51.950001013279092
20
-293.10000271201136
30
-6.5000000000000213
11
51.950001013279099
21
-303.10000271201136
31
-6.4999999999999503
0
ARC
5
115
100
AcDbEntity
8
0
100
AcDbCircle
10
53.700001013279071
20
-303.10000271201136
30
-6.5000000000000213
40
1.7499999999999716
210
4.0602442043434954e-14
220
0
230
1
100
AcDbArc
50
-180
51
0
0
CIRCLE
5
116
100
AcDbEntity
8
0
100
AcDbCircle
10
-145.30027110055707
20
-214.99990882772241
30
-6.4999999999999503
40
1.9499999999999318
210
0
220
-0
230
1
0
CIRCLE
5
117
100
AcDbEntity
8
0
100
AcDbCircle
10
-145.3002711005571
20
-90.999908827722408
30
-6.4999999999999503
40
1.9499999999999318
210
0
220
-0
230
1
0
CIRCLE
5
118
100
AcDbEntity
8
0
100
AcDbCircle
10
-110.30027110055705
20
-259.99990882772238
30
-6.5000000000000213
40
1.9499999999999318
210
1.1648241830196202e-16
220
-1.1574270917275692e-30
230
1
0
LINE
5
119
100
AcDbEntity
8
0
100
AcDbLine
10
80.699998207390308
20
-19.999999552965164
30
-6.5000000000000213
11
80.699998207390308
21
-324.99999273568392
31
-6.5000000000000213
0
LINE
5
120
100
AcDbEntity
8
0
100
AcDbLine
10
80.699998207390308
20
-324.99999273568392
30
-6.5000000000000213
11
-225.29999497532845
21
-324.99999273568392
31
-6.5000000000000213
0
LINE
5
121
100
AcDbEntity
8
0
100
AcDbLine
10
-225.29999497532845
20
-324.99999273568392
30
-6.5000000000000213
11
-225.29999497532845
21
-19.999999552965164
31
-6.5000000000000213
0
LINE
5
122
100
AcDbEntity
8
0
100
AcDbLine
10
-225.29999497532845
20
-19.999999552965164
30
-6.5000000000000213
11
80.699998207390308
21
-19.999999552965164
31
-6.5000000000000213
0
LINE
5
123
100
AcDbEntity
8
0
100
AcDbLine
10
64.749999999999204
20
-52.250000044703413
30
-6.5000000000000213
11
68.749999999999972
21
-52.250000044703995
31
-6.5000000000000213
0
ARC
5
124
100
AcDbEntity
8
0
100
AcDbCircle
10
68.749999999999972
20
-50.500000044703995
30
-6.5000000000000213
40
1.7499999999999982
210
1.1648241830196202e-16
220
0
230
1
100
AcDbArc
50
-90
51
90
0
LINE
5
125
100
AcDbEntity
8
0
100
AcDbLine
10
68.749999999999972
20
-48.750000044704002
30
-6.5000000000000213
11
64.749999999999204
21
-48.750000044703413
31
-6.5000000000000213
0
ARC
5
126
100
AcDbEntity
8
0
100
AcDbCircle
10
64.749999999999204
20
-50.500000044703413
30
-6.5000000000000213
40
1.7499999999999982
210
1.1648241830196202e-16
220
-0
230
1
100
AcDbArc
50
90
51
270
0
LINE
5
127
100
AcDbEntity
8
0
100
AcDbLine
10
-213.25000000000091
20
-52.250000044703455
30
-6.5000000000000213
11
-209.25000000000014
21
-52.250000044704038
31
-6.5000000000000213
0
ARC
5
128
100
AcDbEntity
8
0
100
AcDbCircle
10
-209.25000000000014
20
-50.500000044704045
30
-6.5000000000000213
40
1.7499999999999982
210
1.1648241830196202e-16
220
0
230
1
100
AcDbArc
50
-90
51
90
0
LINE
5
129
100
AcDbEntity
8
0
100
AcDbLine
10
-209.25000000000014
20
-48.750000044704038
30
-6.5000000000000213
11
-213.25000000000091
21
-48.750000044703455
31
-6.5000000000000213
0
ARC
5
130
100
AcDbEntity
8
0
100
AcDbCircle
10
-213.25000000000088
20
-50.500000044703455
30
-6.5000000000000213
40
1.7499999999999982
210
1.1648241830196202e-16
220
2.3647353190922443e-30
230
1
100
AcDbArc
50
90.000000000000924
51
269.99999999999909
0
ENDSEC
0
SECTION
2
OBJECTS
0
DICTIONARY
5
C
100
AcDbDictionary
3
ACAD_GROUP
350
D
3
ACAD_MLINESTYLE
350
17
0
DICTIONARY
5
D
100
AcDbDictionary
0
DICTIONARY
5
1A
330
C
100
AcDbDictionary
0
DICTIONARY
5
17
100
AcDbDictionary
0
ENDSEC
0
EOF
