0
SECTION
2
HEADER
9
$INSUNITS
70
4
9
$ACADVER
1
AC1014
9
$HANDSEED
5
FFFF
0
ENDSEC
0
SECTION
2
TABLES
0
TABLE
2
VPORT
5
8
100
AcDbSymbolTable
0
ENDTAB
0
TABLE
2
LTYPE
5
5
100
AcDbSymbolTable
0
LTYPE
5
14
100
AcDbSymbolTableRecord
100
AcDbLinetypeTableRecord
2
BYBLOCK
70
0
0
LTYPE
5
15
100
AcDbSymbolTableRecord
100
AcDbLinetypeTableRecord
2
BYLAYER
70
0
0
ENDTAB
0
TABLE
2
LAYER
5
2
100
AcDbSymbolTable
70
2
0
LAYER
5
50
100
AcDbSymbolTableRecord
100
AcDbLayerTableRecord
2
0
70
0
6
CONTINUOUS
0
ENDTAB
0
TABLE
2
STYLE
5
3
100
AcDbSymbolTable
70
1
0
STYLE
5
11
100
AcDbSymbolTableRecord
100
AcDbTextStyleTableRecord
2
STANDARD
70
0
0
ENDTAB
0
TABLE
2
VIEW
5
6
100
AcDbSymbolTable
70
0
0
ENDTAB
0
TABLE
2
UCS
5
7
100
AcDbSymbolTable
70
0
0
ENDTAB
0
TABLE
2
APPID
5
9
100
AcDbSymbolTable
70
2
0
APPID
5
12
100
AcDbSymbolTableRecord
100
AcDbRegAppTableRecord
2
ACAD
70
0
0
ENDTAB
0
TABLE
2
DIMSTYLE
5
A
100
AcDbSymbolTable
70
1
0
ENDTAB
0
TABLE
2
BLOCK_RECORD
5
1
100
AcDbSymbolTable
70
1
0
BLOCK_RECORD
5
1F
100
AcDbSymbolTableRecord
100
AcDbBlockTableRecord
2
*MODEL_SPACE
0
BLOCK_RECORD
5
1B
100
AcDbSymbolTableRecord
100
AcDbBlockTableRecord
2
*PAPER_SPACE
0
ENDTAB
0
ENDSEC
0
SECTION
2
BLOCKS
0
BLOCK
5
20
100
AcDbEntity
100
AcDbBlockBegin
2
*MODEL_SPACE
0
ENDBLK
5
21
100
AcDbEntity
100
AcDbBlockEnd
0
BLOCK
5
1C
100
AcDbEntity
100
AcDbBlockBegin
2
*PAPER_SPACE
0
ENDBLK
5
1D
100
AcDbEntity
100
AcDbBlockEnd
0
ENDSEC
0
SECTION
2
ENTITIES
0
CIRCLE
5
100
100
AcDbEntity
8
0
100
AcDbCircle
10
17.999999999999972
20
-19.999998904764652
30
0
40
10
210
0
220
-0
230
1
0
LINE
5
101
100
AcDbEntity
8
0
100
AcDbLine
10
-83.750000000000114
20
-2.5000000000000067
30
0
11
-22.250000000000014
21
-2.5000000000000067
31
0
0
ARC
5
102
100
AcDbEntity
8
0
100
AcDbCircle
10
-22.250000000000011
20
-5.0000000000000071
30
0
40
2.5
210
0
220
0
230
1
100
AcDbArc
50
-90
51
90.000000000000099
0
LINE
5
103
100
AcDbEntity
8
0
100
AcDbLine
10
-22.250000000000011
20
-7.5000000000000071
30
0
11
-83.750000000000114
21
-7.4999999503294346
31
0
0
ARC
5
104
100
AcDbEntity
8
0
100
AcDbCircle
10
-83.750000000000114
20
-4.9999999503294346
30
0
40
2.4999999503294279
210
0
220
-0
230
1
100
AcDbArc
50
90
51
270
0
LINE
5
105
100
AcDbEntity
8
0
100
AcDbLine
10
-83.750000000000114
20
29.499999999999996
30
0
11
-22.250000000000014
21
29.499999999999996
31
0
0
ARC
5
106
100
AcDbEntity
8
0
100
AcDbCircle
10
-22.250000000000011
20
26.999999999999996
30
0
40
2.5
210
0
220
0
230
1
100
AcDbArc
50
-90
51
90.000000000000099
0
LINE
5
107
100
AcDbEntity
8
0
100
AcDbLine
10
-22.250000000000011
20
24.499999999999996
30
0
11
-83.750000000000114
21
24.500000049670572
31
0
0
ARC
5
108
100
AcDbEntity
8
0
100
AcDbCircle
10
-83.750000000000114
20
27.000000049670572
30
0
40
2.4999999503294257
210
0
220
-0
230
1
100
AcDbArc
50
90
51
270
0
LWPOLYLINE
5
109
100
AcDbEntity
8
0
100
AcDbPolyline
90
4
70
1
43
0.0
10
-30.50000000000006
20
37.499999999999993
42
-0.99999999999999989
10
-30.50000000000006
20
32.500000049670568
10
-75.500000000000057
20
32.500000049670561
42
-0.99999999999999989
10
-75.500000000000057
20
37.5
0
LINE
5
110
100
AcDbEntity
8
0
100
AcDbLine
10
-83.750000000000114
20
5.4999999999999938
30
0
11
-22.250000000000014
21
5.4999999999999938
31
0
0
ARC
5
111
100
AcDbEntity
8
0
100
AcDbCircle
10
-22.250000000000011
20
2.9999999999999938
30
0
40
2.5
210
0
220
0
230
1
100
AcDbArc
50
-90
51
90.000000000000099
0
LINE
5
112
100
AcDbEntity
8
0
100
AcDbLine
10
-22.250000000000011
20
0.49999999999999378
30
0
11
-83.750000000000114
21
0.50000004967056588
31
0
0
ARC
5
113
100
AcDbEntity
8
0
100
AcDbCircle
10
-83.750000000000114
20
3.0000000496705659
30
0
40
2.4999999503294279
210
0
220
-0
230
1
100
AcDbArc
50
90
51
270
0
LINE
5
114
100
AcDbEntity
8
0
100
AcDbLine
10
-83.750000000000114
20
-10.500000000000007
30
0
11
-22.250000000000014
21
-10.500000000000007
31
0
0
ARC
5
115
100
AcDbEntity
8
0
100
AcDbCircle
10
-22.250000000000011
20
-13.000000000000007
30
0
40
2.5
210
0
220
0
230
1
100
AcDbArc
50
-90
51
90.000000000000099
0
LINE
5
116
100
AcDbEntity
8
0
100
AcDbLine
10
-22.250000000000011
20
-15.500000000000007
30
0
11
-83.750000000000114
21
-15.499999950329435
31
0
0
ARC
5
117
100
AcDbEntity
8
0
100
AcDbCircle
10
-83.750000000000114
20
-12.999999950329435
30
0
40
2.4999999503294279
210
0
220
-0
230
1
100
AcDbArc
50
90
51
270
0
LWPOLYLINE
5
118
100
AcDbEntity
8
0
100
AcDbPolyline
90
4
70
1
43
0.0
10
-83.750000000000114
20
16.500000049670565
42
-0.99999999999999989
10
-83.750000000000114
20
21.500000049670565
10
-22.250000000000011
20
21.499999999999993
42
-0.99999999999999989
10
-22.250000000000014
20
16.499999999999993
0
LWPOLYLINE
5
119
100
AcDbEntity
8
0
100
AcDbPolyline
90
4
70
1
43
0.0
10
-30.50000000000006
20
-26.500000000000007
10
-75.500000000000057
20
-26.500000000000007
42
0.99999999999999989
10
-75.500000000000057
20
-31.499999950329443
10
-30.50000000000006
20
-31.499999950329439
42
0.99999999999999989
0
LWPOLYLINE
5
120
100
AcDbEntity
8
0
100
AcDbPolyline
90
4
70
1
43
0.0
10
-83.750000000000114
20
8.5000000496705663
42
-0.99999999999999989
10
-83.750000000000114
20
13.500000049670566
10
-22.250000000000011
20
13.499999999999995
42
-0.99999999999999989
10
-22.250000000000014
20
8.4999999999999947
0
LINE
5
121
100
AcDbEntity
8
0
100
AcDbLine
10
-83.750000000000114
20
-18.500000000000011
30
0
11
-22.250000000000014
21
-18.500000000000011
31
0
0
ARC
5
122
100
AcDbEntity
8
0
100
AcDbCircle
10
-22.250000000000011
20
-21.000000000000011
30
0
40
2.5
210
0
220
0
230
1
100
AcDbArc
50
-90
51
90.000000000000099
0
LINE
5
123
100
AcDbEntity
8
0
100
AcDbLine
10
-22.250000000000011
20
-23.500000000000011
30
0
11
-83.750000000000114
21
-23.499999950329435
31
0
0
ARC
5
124
100
AcDbEntity
8
0
100
AcDbCircle
10
-83.750000000000114
20
-20.999999950329435
30
0
40
2.4999999503294257
210
0
220
-0
230
1
100
AcDbArc
50
90
51
270
0
CIRCLE
5
125
100
AcDbEntity
8
0
100
AcDbCircle
10
-17.250000000000011
20
38.749999999999993
30
0
40
2.5
210
0
220
-0
230
1
0
CIRCLE
5
126
100
AcDbEntity
8
0
100
AcDbCircle
10
-88.750000000000114
20
-32.75
30
0
40
2.5
210
0
220
-0
230
1
0
CIRCLE
5
127
100
AcDbEntity
8
0
100
AcDbCircle
10
-88.750000000000114
20
38.749999999999993
30
0
40
2.5
210
0
220
-0
230
1
0
CIRCLE
5
128
100
AcDbEntity
8
0
100
AcDbCircle
10
-17.250000000000011
20
-32.75
30
0
40
2.5
210
0
220
-0
230
1
0
LWPOLYLINE
5
129
100
AcDbEntity
8
0
100
AcDbPolyline
90
4
70
1
43
0.0
10
59.725087073208094
20
-141.94992864364417
42
-0.99999999999999989
10
59.725087073208094
20
-145.74992864364418
10
49.725087073208094
20
-145.74992864364418
42
-0.99999999999999989
10
49.725087073208094
20
-141.94992864364417
0
LWPOLYLINE
5
130
100
AcDbEntity
8
0
100
AcDbPolyline
90
4
70
1
43
0.0
10
184.7250870732081
20
-141.94992864364417
10
174.7250870732081
20
-141.94992864364417
42
0.99999999999999989
10
174.7250870732081
20
-145.74992864364418
10
184.7250870732081
20
-145.74992864364418
42
0.99999999999999989
0
CIRCLE
5
131
100
AcDbEntity
8
0
100
AcDbCircle
10
167.57399867600435
20
48.458998110790112
30
0
40
3.5000000000000142
210
0
220
-0
230
1
0
CIRCLE
5
132
100
AcDbEntity
8
0
100
AcDbCircle
10
104.07399867600432
20
-40.541001866585589
30
0
40
3.499999999999996
210
0
220
-0
230
1
0
CIRCLE
5
133
100
AcDbEntity
8
0
100
AcDbCircle
10
104.07399867600432
20
48.45899811078921
30
0
40
3.499999999999996
210
0
220
-0
230
1
0
CIRCLE
5
134
100
AcDbEntity
8
0
100
AcDbCircle
10
167.5739986760056
20
-40.541001889209895
30
0
40
3.5000000000000142
210
0
220
-0
230
1
0
LWPOLYLINE
5
135
100
AcDbEntity
8
0
100
AcDbPolyline
90
4
70
1
43
0.0
10
159.50000237673521
20
-220.74999988824078
10
149.4999999552964
20
-220.74999988824078
42
1.0000006492703257
10
149.5000022277236
20
-224.24999988824081
10
159.50000237673521
20
-224.24999988823913
42
0.99999861629755071
0
LWPOLYLINE
5
136
100
AcDbEntity
8
0
100
AcDbPolyline
90
4
70
1
43
0.0
10
185.49999995529646
20
-220.74999988824084
10
175.4999999552964
20
-220.74999988824084
42
0.99999999999999989
10
175.49999995529575
20
-224.24999988824084
10
185.4999999552964
20
-224.24999988824084
42
0.99999999999999989
0
LWPOLYLINE
5
137
100
AcDbEntity
8
0
100
AcDbPolyline
90
4
70
1
43
0.0
10
159.49999995529592
20
69.250000111759022
10
149.49999995529592
20
69.250000111759022
42
0.99999999999999989
10
149.49999995529595
20
65.750000111759007
10
159.49999995529592
20
65.750000111759036
42
0.99999999999999989
0
LWPOLYLINE
5
138
100
AcDbEntity
8
0
100
AcDbPolyline
90
4
70
1
43
0.0
10
185.49999995529586
20
69.250000111759007
10
175.49999995529592
20
69.250000111759007
42
0.99999999999999989
10
175.49999995529603
20
65.750000111759007
10
185.49999995529592
20
65.750000111759007
42
0.99999999999999989
0
CIRCLE
5
139
100
AcDbEntity
8
0
100
AcDbCircle
10
132
20
-67.599825289242332
30
0
40
1.749999999999998
210
0
220
-0
230
1
0
CIRCLE
5
140
100
AcDbEntity
8
0
100
AcDbCircle
10
152
20
-67.599825289242332
30
0
40
1.7500000000000071
210
0
220
-0
230
1
0
CIRCLE
5
141
100
AcDbEntity
8
0
100
AcDbCircle
10
-60.999999999999957
20
-67.599825289242332
30
0
40
1.749999999999998
210
0
220
-0
230
1
0
CIRCLE
5
142
100
AcDbEntity
8
0
100
AcDbCircle
10
-40.999999999999957
20
-67.599825289242332
30
0
40
1.7500000000000071
210
0
220
-0
230
1
0
LWPOLYLINE
5
143
100
AcDbEntity
8
0
100
AcDbPolyline
90
4
70
1
43
0.0
10
-78.09999286755918
20
-220.84999536648394
10
-88.099992867559195
20
-220.84999536648394
42
0.99999999999999989
10
-88.099992867559195
20
-224.34999536648394
10
-78.09999286755918
20
-224.34999536648394
42
0.99999999999999989
0
LWPOLYLINE
5
144
100
AcDbEntity
8
0
100
AcDbPolyline
90
4
70
1
43
0.0
10
-88.100005319714541
20
59.250000834464977
42
-0.99999999999999989
10
-88.100005319714541
20
62.750000834465062
10
-78.100005319714541
20
62.750000834464991
42
-0.99999999999999989
10
-78.100005319714541
20
59.250000834465048
0
LWPOLYLINE
5
145
100
AcDbEntity
8
0
100
AcDbPolyline
90
4
70
1
43
0.0
10
197.99999999999997
20
75
10
197.99999999999997
20
-230
10
-107.00000000000004
20
-230
10
-107.00000000000003
20
75
0
CIRCLE
5
146
100
AcDbEntity
8
0
100
AcDbCircle
10
17.999999999999972
20
-19.999998904764652
30
-6.5000000000000036
40
10
210
0
220
0
230
1
0
LINE
5
147
100
AcDbEntity
8
0
100
AcDbLine
10
-22.250000000000011
20
-2.5000000000000067
30
-6.5000000000000036
11
-83.750000000000114
21
-2.5000000000000067
31
-6.5000000000000036
0
ARC
5
148
100
AcDbEntity
8
0
100
AcDbCircle
10
-83.750000000000114
20
-4.9999999503294346
30
-6.5000000000000036
40
2.4999999503294279
210
0
220
-0
230
1
100
AcDbArc
50
90
51
270
0
LINE
5
149
100
AcDbEntity
8
0
100
AcDbLine
10
-83.750000000000114
20
-7.4999999503294346
30
-6.5000000000000036
11
-22.250000000000014
21
-7.5000000000000071
31
-6.5000000000000036
0
ARC
5
150
100
AcDbEntity
8
0
100
AcDbCircle
10
-22.250000000000011
20
-5.0000000000000071
30
-6.5000000000000036
40
2.5
210
0
220
0
230
1
100
AcDbArc
50
-90.000000000000099
51
90
0
LINE
5
151
100
AcDbEntity
8
0
100
AcDbLine
10
-22.250000000000011
20
29.499999999999996
30
-6.5000000000000036
11
-83.750000000000114
21
29.499999999999996
31
-6.5000000000000036
0
ARC
5
152
100
AcDbEntity
8
0
100
AcDbCircle
10
-83.750000000000114
20
27.000000049670572
30
-6.5000000000000036
40
2.4999999503294257
210
0
220
-0
230
1
100
AcDbArc
50
90
51
270
0
LINE
5
153
100
AcDbEntity
8
0
100
AcDbLine
10
-83.750000000000114
20
24.500000049670572
30
-6.5000000000000036
11
-22.250000000000014
21
24.499999999999996
31
-6.5000000000000036
0
ARC
5
154
100
AcDbEntity
8
0
100
AcDbCircle
10
-22.250000000000011
20
26.999999999999996
30
-6.5000000000000036
40
2.5
210
0
220
0
230
1
100
AcDbArc
50
-90.000000000000099
51
90
0
ARC
5
155
100
AcDbEntity
8
0
100
AcDbCircle
10
-30.50000000000006
20
35.00000002483528
30
-6.5000000000000036
40
2.4999999751647151
210
-0
220
0
230
1
100
AcDbArc
50
-90
51
90
0
LINE
5
156
100
AcDbEntity
8
0
100
AcDbLine
10
-30.50000000000006
20
37.499999999999993
30
-6.5000000000000036
11
-75.500000000000057
21
37.499999999999993
31
-6.5000000000000036
0
ARC
5
157
100
AcDbEntity
8
0
100
AcDbCircle
10
-75.500000000000057
20
35.00000002483528
30
-6.5000000000000036
40
2.4999999751647151
210
0
220
-0
230
1
100
AcDbArc
50
90
51
270
0
LINE
5
158
100
AcDbEntity
8
0
100
AcDbLine
10
-75.500000000000057
20
32.500000049670561
30
-6.5000000000000036
11
-30.50000000000006
21
32.500000049670568
31
-6.5000000000000036
0
LINE
5
159
100
AcDbEntity
8
0
100
AcDbLine
10
-22.250000000000011
20
5.4999999999999938
30
-6.5000000000000036
11
-83.750000000000114
21
5.4999999999999938
31
-6.5000000000000036
0
ARC
5
160
100
AcDbEntity
8
0
100
AcDbCircle
10
-83.750000000000114
20
3.0000000496705659
30
-6.5000000000000036
40
2.4999999503294279
210
0
220
-0
230
1
100
AcDbArc
50
90
51
270
0
LINE
5
161
100
AcDbEntity
8
0
100
AcDbLine
10
-83.750000000000114
20
0.50000004967056588
30
-6.5000000000000036
11
-22.250000000000014
21
0.49999999999999378
31
-6.5000000000000036
0
ARC
5
162
100
AcDbEntity
8
0
100
AcDbCircle
10
-22.250000000000011
20
2.9999999999999938
30
-6.5000000000000036
40
2.5
210
0
220
0
230
1
100
AcDbArc
50
-90.000000000000099
51
90
0
LINE
5
163
100
AcDbEntity
8
0
100
AcDbLine
10
-22.250000000000011
20
-10.500000000000007
30
-6.5000000000000036
11
-83.750000000000114
21
-10.500000000000007
31
-6.5000000000000036
0
ARC
5
164
100
AcDbEntity
8
0
100
AcDbCircle
10
-83.750000000000114
20
-12.999999950329435
30
-6.5000000000000036
40
2.4999999503294279
210
0
220
-0
230
1
100
AcDbArc
50
90
51
270
0
LINE
5
165
100
AcDbEntity
8
0
100
AcDbLine
10
-83.750000000000114
20
-15.499999950329435
30
-6.5000000000000036
11
-22.250000000000014
21
-15.500000000000007
31
-6.5000000000000036
0
ARC
5
166
100
AcDbEntity
8
0
100
AcDbCircle
10
-22.250000000000011
20
-13.000000000000007
30
-6.5000000000000036
40
2.5
210
0
220
0
230
1
100
AcDbArc
50
-90.000000000000099
51
90
0
ARC
5
167
100
AcDbEntity
8
0
100
AcDbCircle
10
-83.750000000000114
20
19.000000049670568
30
-6.5000000000000036
40
2.4999999999999978
210
0
220
-0
230
1
100
AcDbArc
50
90
51
270
0
LINE
5
168
100
AcDbEntity
8
0
100
AcDbLine
10
-83.750000000000114
20
16.500000049670568
30
-6.5000000000000036
11
-22.250000000000014
21
16.499999999999993
31
-6.5000000000000036
0
ARC
5
169
100
AcDbEntity
8
0
100
AcDbCircle
10
-22.250000000000011
20
18.999999999999993
30
-6.5000000000000036
40
2.5
210
0
220
0
230
1
100
AcDbArc
50
-90.000000000000099
51
90
0
LINE
5
170
100
AcDbEntity
8
0
100
AcDbLine
10
-22.250000000000011
20
21.499999999999993
30
-6.5000000000000036
11
-83.750000000000114
21
21.500000049670565
31
-6.5000000000000036
0
LINE
5
171
100
AcDbEntity
8
0
100
AcDbLine
10
-30.50000000000006
20
-26.500000000000007
30
-6.5000000000000036
11
-75.500000000000057
21
-26.500000000000007
31
-6.5000000000000036
0
ARC
5
172
100
AcDbEntity
8
0
100
AcDbCircle
10
-75.500000000000057
20
-28.999999975164723
30
-6.5000000000000036
40
2.4999999751647151
210
0
220
-0
230
1
100
AcDbArc
50
90
51
270
0
LINE
5
173
100
AcDbEntity
8
0
100
AcDbLine
10
-75.500000000000057
20
-31.499999950329443
30
-6.5000000000000036
11
-30.50000000000006
21
-31.499999950329439
31
-6.5000000000000036
0
ARC
5
174
100
AcDbEntity
8
0
100
AcDbCircle
10
-30.50000000000006
20
-28.999999975164723
30
-6.5000000000000036
40
2.4999999751647151
210
-0
220
0
230
1
100
AcDbArc
50
-90
51
90
0
ARC
5
175
100
AcDbEntity
8
0
100
AcDbCircle
10
-83.750000000000114
20
11.000000049670566
30
-6.5000000000000036
40
2.5
210
0
220
-0
230
1
100
AcDbArc
50
90
51
270
0
LINE
5
176
100
AcDbEntity
8
0
100
AcDbLine
10
-83.750000000000114
20
8.5000000496705663
30
-6.5000000000000036
11
-22.250000000000014
21
8.4999999999999947
31
-6.5000000000000036
0
ARC
5
177
100
AcDbEntity
8
0
100
AcDbCircle
10
-22.250000000000011
20
10.999999999999995
30
-6.5000000000000036
40
2.5
210
0
220
0
230
1
100
AcDbArc
50
-90.000000000000099
51
90
0
LINE
5
178
100
AcDbEntity
8
0
100
AcDbLine
10
-22.250000000000011
20
13.499999999999995
30
-6.5000000000000036
11
-83.750000000000114
21
13.500000049670566
31
-6.5000000000000036
0
LINE
5
179
100
AcDbEntity
8
0
100
AcDbLine
10
-22.250000000000011
20
-18.500000000000011
30
-6.5000000000000036
11
-83.750000000000114
21
-18.500000000000011
31
-6.5000000000000036
0
ARC
5
180
100
AcDbEntity
8
0
100
AcDbCircle
10
-83.750000000000114
20
-20.999999950329435
30
-6.5000000000000036
40
2.4999999503294257
210
0
220
-0
230
1
100
AcDbArc
50
90
51
270
0
LINE
5
181
100
AcDbEntity
8
0
100
AcDbLine
10
-83.750000000000114
20
-23.499999950329435
30
-6.5000000000000036
11
-22.250000000000014
21
-23.500000000000011
31
-6.5000000000000036
0
ARC
5
182
100
AcDbEntity
8
0
100
AcDbCircle
10
-22.250000000000011
20
-21.000000000000011
30
-6.5000000000000036
40
2.5
210
0
220
0
230
1
100
AcDbArc
50
-90.000000000000099
51
90
0
CIRCLE
5
183
100
AcDbEntity
8
0
100
AcDbCircle
10
-17.250000000000011
20
38.749999999999993
30
-6.5000000000000036
40
2.5
210
0
220
0
230
1
0
CIRCLE
5
184
100
AcDbEntity
8
0
100
AcDbCircle
10
-88.750000000000114
20
-32.75
30
-6.5000000000000036
40
2.5
210
0
220
0
230
1
0
CIRCLE
5
185
100
AcDbEntity
8
0
100
AcDbCircle
10
-88.750000000000114
20
38.749999999999993
30
-6.5000000000000036
40
2.5
210
0
220
0
230
1
0
CIRCLE
5
186
100
AcDbEntity
8
0
100
AcDbCircle
10
-17.250000000000011
20
-32.75
30
-6.5000000000000036
40
2.5
210
0
220
0
230
1
0
ARC
5
187
100
AcDbEntity
8
0
100
AcDbCircle
10
59.725087073208094
20
-143.84992864364418
30
-6.5000000000000036
40
1.9000000000000128
210
-0
220
0
230
1
100
AcDbArc
50
-90
51
90
0
LINE
5
188
100
AcDbEntity
8
0
100
AcDbLine
10
59.725087073208094
20
-141.94992864364417
30
-6.5000000000000036
11
49.725087073208094
21
-141.94992864364417
31
-6.5000000000000036
0
ARC
5
189
100
AcDbEntity
8
0
100
AcDbCircle
10
49.725087073208094
20
-143.84992864364418
30
-6.5000000000000036
40
1.9000000000000128
210
0
220
-0
230
1
100
AcDbArc
50
90
51
270
0
LINE
5
190
100
AcDbEntity
8
0
100
AcDbLine
10
49.725087073208094
20
-145.74992864364418
30
-6.5000000000000036
11
59.725087073208094
21
-145.74992864364418
31
-6.5000000000000036
0
LINE
5
191
100
AcDbEntity
8
0
100
AcDbLine
10
184.7250870732081
20
-141.94992864364417
30
-6.5000000000000036
11
174.7250870732081
21
-141.94992864364417
31
-6.5000000000000036
0
ARC
5
192
100
AcDbEntity
8
0
100
AcDbCircle
10
174.7250870732081
20
-143.84992864364418
30
-6.5000000000000036
40
1.9000000000000128
210
0
220
-0
230
1
100
AcDbArc
50
90
51
270
0
LINE
5
193
100
AcDbEntity
8
0
100
AcDbLine
10
174.7250870732081
20
-145.74992864364418
30
-6.5000000000000036
11
184.7250870732081
21
-145.74992864364418
31
-6.5000000000000036
0
ARC
5
194
100
AcDbEntity
8
0
100
AcDbCircle
10
184.7250870732081
20
-143.84992864364418
30
-6.5000000000000036
40
1.9000000000000128
210
-0
220
0
230
1
100
AcDbArc
50
-90
51
90
0
CIRCLE
5
195
100
AcDbEntity
8
0
100
AcDbCircle
10
167.57399867600435
20
48.458998110790112
30
-6.5000000000000036
40
3.5000000000000142
210
0
220
0
230
1
0
CIRCLE
5
196
100
AcDbEntity
8
0
100
AcDbCircle
10
104.07399867600432
20
-40.541001866585589
30
-6.5000000000000036
40
3.4999999999999964
210
0
220
0
230
1
0
CIRCLE
5
197
100
AcDbEntity
8
0
100
AcDbCircle
10
104.07399867600432
20
48.45899811078921
30
-6.5000000000000036
40
3.4999999999999964
210
0
220
0
230
1
0
CIRCLE
5
198
100
AcDbEntity
8
0
100
AcDbCircle
10
167.5739986760056
20
-40.541001889209895
30
-6.5000000000000036
40
3.5000000000000142
210
0
220
0
230
1
0
LINE
5
199
100
AcDbEntity
8
0
100
AcDbLine
10
159.50000237673521
20
-220.74999988824078
30
-6.5000000000000036
11
149.4999999552964
21
-220.74999988824078
31
-6.5000000000000036
0
ARC
5
200
100
AcDbEntity
8
0
100
AcDbCircle
10
149.4999999552964
20
-222.49999988824078
30
-6.5000000000000036
40
1.7500000000000071
210
0
220
-0
230
1
100
AcDbArc
50
90
51
270.00007440027861
0
LINE
5
201
100
AcDbEntity
8
0
100
AcDbLine
10
149.5000022277236
20
-224.2499998882393
30
-6.5000000000000036
11
159.50000237673521
21
-224.24999988823913
31
-6.5000000000000036
0
ARC
5
202
100
AcDbEntity
8
0
100
AcDbCircle
10
159.4999999552964
20
-222.49999988824078
30
-6.5000000000000036
40
1.7500000000000127
210
-0
220
0
230
1
100
AcDbArc
50
-89.999920721014846
51
89.999920721014846
0
LINE
5
203
100
AcDbEntity
8
0
100
AcDbLine
10
185.49999995529646
20
-220.74999988824084
30
-6.5000000000000036
11
175.4999999552964
21
-220.74999988824084
31
-6.5000000000000036
0
ARC
5
204
100
AcDbEntity
8
0
100
AcDbCircle
10
175.4999999552964
20
-222.49999988824084
30
-6.5000000000000036
40
1.7500000000000071
210
0
220
-0
230
1
100
AcDbArc
50
90
51
269.99999999997857
0
LINE
5
205
100
AcDbEntity
8
0
100
AcDbLine
10
175.49999995529575
20
-224.24999988824084
30
-6.5000000000000036
11
185.4999999552964
21
-224.24999988824084
31
-6.5000000000000036
0
ARC
5
206
100
AcDbEntity
8
0
100
AcDbCircle
10
185.4999999552964
20
-222.49999988824084
30
-6.5000000000000036
40
1.7500000000000071
210
-0
220
0
230
1
100
AcDbArc
50
-90
51
89.999999999998138
0
LINE
5
207
100
AcDbEntity
8
0
100
AcDbLine
10
159.49999995529592
20
69.250000111759022
30
-6.5000000000000036
11
149.49999995529592
21
69.250000111759022
31
-6.5000000000000036
0
ARC
5
208
100
AcDbEntity
8
0
100
AcDbCircle
10
149.49999995529592
20
67.500000111759022
30
-6.5000000000000036
40
1.7499999999999982
210
0
220
-0
230
1
100
AcDbArc
50
90
51
270.00000000000091
0
LINE
5
209
100
AcDbEntity
8
0
100
AcDbLine
10
149.49999995529595
20
65.750000111759036
30
-6.5000000000000036
11
159.49999995529592
21
65.750000111759007
31
-6.5000000000000036
0
ARC
5
210
100
AcDbEntity
8
0
100
AcDbCircle
10
159.49999995529592
20
67.500000111759022
30
-6.5000000000000036
40
1.7500000000000071
210
-0
220
0
230
1
100
AcDbArc
50
-90
51
90
0
LINE
5
211
100
AcDbEntity
8
0
100
AcDbLine
10
185.49999995529586
20
69.250000111759007
30
-6.5000000000000036
11
175.49999995529592
21
69.250000111759007
31
-6.5000000000000036
0
ARC
5
212
100
AcDbEntity
8
0
100
AcDbCircle
10
175.49999995529592
20
67.500000111759007
30
-6.5000000000000036
40
1.7499999999999982
210
0
220
-0
230
1
100
AcDbArc
50
90
51
270.00000000000369
0
LINE
5
213
100
AcDbEntity
8
0
100
AcDbLine
10
175.49999995529603
20
65.750000111759007
30
-6.5000000000000036
11
185.49999995529592
21
65.750000111759007
31
-6.5000000000000036
0
ARC
5
214
100
AcDbEntity
8
0
100
AcDbCircle
10
185.49999995529592
20
67.500000111759007
30
-6.5000000000000036
40
1.7499999999999982
210
-0
220
0
230
1
100
AcDbArc
50
-90
51
90.000000000001862
0
CIRCLE
5
215
100
AcDbEntity
8
0
100
AcDbCircle
10
132
20
-67.599825289242332
30
-6.5000000000000213
40
1.7499999999999982
210
0
220
0
230
1
0
CIRCLE
5
216
100
AcDbEntity
8
0
100
AcDbCircle
10
152
20
-67.599825289242332
30
-6.5000000000000213
40
1.7500000000000071
210
0
220
0
230
1
0
CIRCLE
5
217
100
AcDbEntity
8
0
100
AcDbCircle
10
-60.999999999999957
20
-67.599825289242332
30
-6.5000000000000213
40
1.7499999999999982
210
0
220
0
230
1
0
CIRCLE
5
218
100
AcDbEntity
8
0
100
AcDbCircle
10
-40.999999999999957
20
-67.599825289242332
30
-6.5000000000000213
40
1.7500000000000071
210
0
220
0
230
1
0
LINE
5
219
100
AcDbEntity
8
0
100
AcDbLine
10
-78.09999286755918
20
-220.84999536648394
30
-6.5000000000000036
11
-88.09999286755918
21
-220.84999536648394
31
-6.5000000000000036
0
ARC
5
220
100
AcDbEntity
8
0
100
AcDbCircle
10
-88.09999286755918
20
-222.59999536648394
30
-6.5000000000000036
40
1.7500000000000071
210
0
220
-0
230
1
100
AcDbArc
50
90
51
270
0
LINE
5
221
100
AcDbEntity
8
0
100
AcDbLine
10
-88.09999286755918
20
-224.34999536648394
30
-6.5000000000000036
11
-78.09999286755918
21
-224.34999536648394
31
-6.5000000000000036
0
ARC
5
222
100
AcDbEntity
8
0
100
AcDbCircle
10
-78.09999286755918
20
-222.59999536648394
30
-6.5000000000000036
40
1.7500000000000071
210
-0
220
0
230
1
100
AcDbArc
50
-90
51
90
0
ARC
5
223
100
AcDbEntity
8
0
100
AcDbCircle
10
-88.100005319714541
20
61.00000083446502
30
-6.5000000000000036
40
1.7500000000000426
210
0
220
-0
230
1
100
AcDbArc
50
90
51
270
0
LINE
5
224
100
AcDbEntity
8
0
100
AcDbLine
10
-88.100005319714541
20
59.250000834464977
30
-6.5000000000000036
11
-78.100005319714541
21
59.250000834465048
31
-6.5000000000000036
0
ARC
5
225
100
AcDbEntity
8
0
100
AcDbCircle
10
-78.100005319714541
20
61.00000083446502
30
-6.5000000000000036
40
1.7499999999999716
210
-0
220
0
230
1
100
AcDbArc
50
-90
51
90
0
LINE
5
226
100
AcDbEntity
8
0
100
AcDbLine
10
-78.100005319714541
20
62.750000834464991
30
-6.5000000000000036
11
-88.100005319714541
21
62.750000834465062
31
-6.5000000000000036
0
LINE
5
227
100
AcDbEntity
8
0
100
AcDbLine
10
-107.00000000000003
20
75
30
-6.5000000000000036
11
197.99999999999997
21
75
31
-6.5000000000000036
0
LINE
5
228
100
AcDbEntity
8
0
100
AcDbLine
10
197.99999999999997
20
75
30
-6.5000000000000036
11
197.99999999999997
21
-230
31
-6.5000000000000036
0
LINE
5
229
100
AcDbEntity
8
0
100
AcDbLine
10
197.99999999999997
20
-230
30
-6.5000000000000036
11
-107.00000000000003
21
-230
31
-6.5000000000000036
0
LINE
5
230
100
AcDbEntity
8
0
100
AcDbLine
10
-107.00000000000003
20
-230
30
-6.5000000000000036
11
-107.00000000000003
21
75
31
-6.5000000000000036
0
ENDSEC
0
SECTION
2
OBJECTS
0
DICTIONARY
5
C
100
AcDbDictionary
3
ACAD_GROUP
350
D
3
ACAD_MLINESTYLE
350
17
0
DICTIONARY
5
D
100
AcDbDictionary
0
DICTIONARY
5
1A
330
C
100
AcDbDictionary
0
DICTIONARY
5
17
100
AcDbDictionary
0
ENDSEC
0
EOF
