0
SECTION
2
HEADER
9
$INSUNITS
70
4
9
$ACADVER
1
AC1014
9
$HANDSEED
5
FFFF
0
ENDSEC
0
SECTION
2
TABLES
0
TABLE
2
VPORT
5
8
100
AcDbSymbolTable
0
ENDTAB
0
TABLE
2
LTYPE
5
5
100
AcDbSymbolTable
0
LTYPE
5
14
100
AcDbSymbolTableRecord
100
AcDbLinetypeTableRecord
2
BYBLOCK
70
0
0
LTYPE
5
15
100
AcDbSymbolTableRecord
100
AcDbLinetypeTableRecord
2
BYLAYER
70
0
0
ENDTAB
0
TABLE
2
LAYER
5
2
100
AcDbSymbolTable
70
2
0
LAYER
5
50
100
AcDbSymbolTableRecord
100
AcDbLayerTableRecord
2
0
70
0
6
CONTINUOUS
0
ENDTAB
0
TABLE
2
STYLE
5
3
100
AcDbSymbolTable
70
1
0
STYLE
5
11
100
AcDbSymbolTableRecord
100
AcDbTextStyleTableRecord
2
STANDARD
70
0
0
ENDTAB
0
TABLE
2
VIEW
5
6
100
AcDbSymbolTable
70
0
0
ENDTAB
0
TABLE
2
UCS
5
7
100
AcDbSymbolTable
70
0
0
ENDTAB
0
TABLE
2
APPID
5
9
100
AcDbSymbolTable
70
2
0
APPID
5
12
100
AcDbSymbolTableRecord
100
AcDbRegAppTableRecord
2
ACAD
70
0
0
ENDTAB
0
TABLE
2
DIMSTYLE
5
A
100
AcDbSymbolTable
70
1
0
ENDTAB
0
TABLE
2
BLOCK_RECORD
5
1
100
AcDbSymbolTable
70
1
0
BLOCK_RECORD
5
1F
100
AcDbSymbolTableRecord
100
AcDbBlockTableRecord
2
*MODEL_SPACE
0
BLOCK_RECORD
5
1B
100
AcDbSymbolTableRecord
100
AcDbBlockTableRecord
2
*PAPER_SPACE
0
ENDTAB
0
ENDSEC
0
SECTION
2
BLOCKS
0
BLOCK
5
20
100
AcDbEntity
100
AcDbBlockBegin
2
*MODEL_SPACE
0
ENDBLK
5
21
100
AcDbEntity
100
AcDbBlockEnd
0
BLOCK
5
1C
100
AcDbEntity
100
AcDbBlockBegin
2
*PAPER_SPACE
0
ENDBLK
5
1D
100
AcDbEntity
100
AcDbBlockEnd
0
ENDSEC
0
SECTION
2
ENTITIES
0
LWPOLYLINE
5
100
100
AcDbEntity
8
0
100
AcDbPolyline
90
4
70
1
43
0.0
10
45.760003814697455
20
184.86050288118309
10
45.760003814703055
20
174.86050305473699
42
1.0000000557550413
10
49.260003814803937
20
174.86050324932702
10
49.260003814697377
20
184.86050305475672
42
1.0000000494215617
0
LINE
5
101
100
AcDbEntity
8
0
100
AcDbLine
10
-228.7899961853027
20
184.86050292539471
30
0
11
-228.78999618529579
21
174.86050305473924
31
0
0
ARC
5
102
100
AcDbEntity
8
0
100
AcDbCircle
10
-230.53999618530275
20
174.86050305473805
30
4.3448463127258732e-46
40
1.7499999999999716
210
2.465190328815686e-32
220
-5.4040029664930715e-45
230
1
100
AcDbArc
50
-180
51
0
0
LINE
5
103
100
AcDbEntity
8
0
100
AcDbLine
10
-232.28999618530275
20
174.86050305473805
30
4.3140830754274247e-32
11
-232.28999618530275
21
184.86050305473805
31
0
0
ARC
5
104
100
AcDbEntity
8
0
100
AcDbCircle
10
-230.53999618530273
20
184.86050305473805
30
2.2579516270858869e-46
40
1.7500000000000473
210
2.6369320925411019e-46
220
1.8220341061340364e-39
230
1
100
AcDbArc
50
-4.1826195778500388e-06
51
180
0
LWPOLYLINE
5
105
100
AcDbEntity
8
0
100
AcDbPolyline
90
4
70
1
43
0.0
10
31.799997794628311
20
84.250001296400953
42
-0.99999999999999989
10
31.799997794628347
20
87.750001296400924
10
41.799997794628339
20
87.750001296400939
42
-0.99999999999999989
10
41.799997794628339
20
84.250001296400939
0
LWPOLYLINE
5
106
100
AcDbEntity
8
0
100
AcDbPolyline
90
4
70
1
43
0.0
10
-214.79999999999978
20
87.750001296400995
42
-0.99999999999999989
10
-214.79999999999987
20
84.250001296401024
10
-224.79999999999993
20
84.250001296401024
42
-0.99999999999999989
10
-224.79999999999987
20
87.750001296400995
0
LWPOLYLINE
5
107
100
AcDbEntity
8
0
100
AcDbPolyline
90
4
70
1
43
0.0
10
55.000000000000071
20
68.999999999999986
10
-237.99999999999989
20
68.999999999999986
10
-237.99999999999989
20
208.935
10
55.000000000000071
20
208.935
0
LINE
5
108
100
AcDbEntity
8
0
100
AcDbLine
10
49.260003814803952
20
174.86050324932702
30
-6.4999999999999147
11
49.260003814697399
21
184.86050305475672
31
-6.4999999999999147
0
ARC
5
109
100
AcDbEntity
8
0
100
AcDbCircle
10
47.510003814697377
20
184.86050305473805
30
-6.4999999999999147
40
1.750000000000016
210
3.8307032925973128e-54
220
-3.5873240686715317e-43
230
1
100
AcDbArc
50
0
51
180.00000566329368
0
LINE
5
110
100
AcDbEntity
8
0
100
AcDbLine
10
45.760003814697384
20
184.86050288118309
30
-6.4999999999999147
11
45.760003814703069
21
174.86050305473699
31
-6.4999999999999147
0
ARC
5
111
100
AcDbEntity
8
0
100
AcDbCircle
10
47.510003814697377
20
174.86050305473805
30
-6.4999999999999147
40
1.7499999999943139
210
2.5457736483596311e-44
220
-4.3241388350535385e-32
230
1
100
AcDbArc
50
-180
51
6.3317548236532219e-06
0
LINE
5
112
100
AcDbEntity
8
0
100
AcDbLine
10
-228.78999618529579
20
174.86050305473924
30
-6.4999999999999147
11
-228.7899961853027
21
184.86050292539471
31
-6.4999999999999147
0
ARC
5
113
100
AcDbEntity
8
0
100
AcDbCircle
10
-230.53999618530273
20
184.86050305473805
30
-6.4999999999999858
40
1.7500000000000473
210
-4.0602442043433086e-14
220
3.0009456826930515e-21
230
1
100
AcDbArc
50
-4.1826195778500388e-06
51
180
0
LINE
5
114
100
AcDbEntity
8
0
100
AcDbLine
10
-232.28999618530275
20
184.86050305473805
30
-6.4999999999999858
11
-232.28999618530275
21
174.86050305473805
31
-6.4999999999999147
0
ARC
5
115
100
AcDbEntity
8
0
100
AcDbCircle
10
-230.53999618530273
20
174.86050305473805
30
-6.4999999999999858
40
1.7500000000000071
210
4.0602442043434133e-14
220
2.7192621468937821e-32
230
1
100
AcDbArc
50
-180
51
0
0
ARC
5
116
100
AcDbEntity
8
0
100
AcDbCircle
10
31.799997794628347
20
86.000001296400939
30
-6.4999999999999147
40
1.7500000000000071
210
1.517224970001027e-31
220
-0
230
1
100
AcDbArc
50
90
51
270
0
LINE
5
117
100
AcDbEntity
8
0
100
AcDbLine
10
31.799997794628347
20
84.250001296400939
30
-6.4999999999999147
11
41.799997794628339
21
84.250001296400939
31
-6.499999999999913
0
ARC
5
118
100
AcDbEntity
8
0
100
AcDbCircle
10
41.799997794628354
20
86.000001296400939
30
-6.4999999999999147
40
1.7500000000000071
210
5.3114663495408755e-30
220
1.2688263138573167e-15
230
1
100
AcDbArc
50
-90.000000000000455
51
90
0
LINE
5
119
100
AcDbEntity
8
0
100
AcDbLine
10
41.799997794628354
20
87.750001296400939
30
-6.4999999999999147
11
31.799997794628347
21
87.750001296400939
31
-6.4999999999999147
0
ARC
5
120
100
AcDbEntity
8
0
100
AcDbCircle
10
-214.79999999999987
20
86.00000129640101
30
-6.4999999999999858
40
1.7500000000000071
210
5.3114883847485038e-32
220
0
230
1
100
AcDbArc
50
-90
51
90
0
LINE
5
121
100
AcDbEntity
8
0
100
AcDbLine
10
-214.79999999999987
20
87.750001296401024
30
-6.4999999999999858
11
-224.79999999999987
21
87.750001296401024
31
-6.4999999999999165
0
ARC
5
122
100
AcDbEntity
8
0
100
AcDbCircle
10
-224.79999999999987
20
86.00000129640101
30
-6.4999999999999858
40
1.7500000000000071
210
2.3381544197766018e-32
220
-3.9333615729576816e-14
230
1
100
AcDbArc
50
90
51
270
0
LINE
5
123
100
AcDbEntity
8
0
100
AcDbLine
10
-224.79999999999987
20
84.250001296400995
30
-6.4999999999999858
11
-214.79999999999987
21
84.250001296400995
31
-6.4999999999999858
0
LINE
5
124
100
AcDbEntity
8
0
100
AcDbLine
10
-237.99999999999989
20
208.935
30
-6.4999999999999147
11
55.000000000000071
21
208.935
31
-6.4999999999999201
0
LINE
5
125
100
AcDbEntity
8
0
100
AcDbLine
10
55.000000000000071
20
208.935
30
-6.4999999999999201
11
55.000000000000078
21
68.999999999999986
31
-6.4999999999999147
0
LINE
5
126
100
AcDbEntity
8
0
100
AcDbLine
10
55.000000000000078
20
68.999999999999986
30
-6.4999999999999147
11
-237.99999999999989
21
68.999999999999986
31
-6.4999999999999094
0
LINE
5
127
100
AcDbEntity
8
0
100
AcDbLine
10
-237.99999999999989
20
68.999999999999986
30
-6.4999999999999094
11
-237.99999999999989
21
208.935
31
-6.4999999999999147
0
ENDSEC
0
SECTION
2
OBJECTS
0
DICTIONARY
5
C
100
AcDbDictionary
3
ACAD_GROUP
350
D
3
ACAD_MLINESTYLE
350
17
0
DICTIONARY
5
D
100
AcDbDictionary
0
DICTIONARY
5
1A
330
C
100
AcDbDictionary
0
DICTIONARY
5
17
100
AcDbDictionary
0
ENDSEC
0
EOF
