0
SECTION
2
HEADER
9
$INSUNITS
70
4
9
$ACADVER
1
AC1014
9
$HANDSEED
5
FFFF
0
ENDSEC
0
SECTION
2
TABLES
0
TABLE
2
VPORT
5
8
100
AcDbSymbolTable
0
ENDTAB
0
TABLE
2
LTYPE
5
5
100
AcDbSymbolTable
0
LTYPE
5
14
100
AcDbSymbolTableRecord
100
AcDbLinetypeTableRecord
2
BYBLOCK
70
0
0
LTYPE
5
15
100
AcDbSymbolTableRecord
100
AcDbLinetypeTableRecord
2
BYLAYER
70
0
0
ENDTAB
0
TABLE
2
LAYER
5
2
100
AcDbSymbolTable
70
2
0
LAYER
5
50
100
AcDbSymbolTableRecord
100
AcDbLayerTableRecord
2
0
70
0
6
CONTINUOUS
0
ENDTAB
0
TABLE
2
STYLE
5
3
100
AcDbSymbolTable
70
1
0
STYLE
5
11
100
AcDbSymbolTableRecord
100
AcDbTextStyleTableRecord
2
STANDARD
70
0
0
ENDTAB
0
TABLE
2
VIEW
5
6
100
AcDbSymbolTable
70
0
0
ENDTAB
0
TABLE
2
UCS
5
7
100
AcDbSymbolTable
70
0
0
ENDTAB
0
TABLE
2
APPID
5
9
100
AcDbSymbolTable
70
2
0
APPID
5
12
100
AcDbSymbolTableRecord
100
AcDbRegAppTableRecord
2
ACAD
70
0
0
ENDTAB
0
TABLE
2
DIMSTYLE
5
A
100
AcDbSymbolTable
70
1
0
ENDTAB
0
TABLE
2
BLOCK_RECORD
5
1
100
AcDbSymbolTable
70
1
0
BLOCK_RECORD
5
1F
100
AcDbSymbolTableRecord
100
AcDbBlockTableRecord
2
*MODEL_SPACE
0
BLOCK_RECORD
5
1B
100
AcDbSymbolTableRecord
100
AcDbBlockTableRecord
2
*PAPER_SPACE
0
ENDTAB
0
ENDSEC
0
SECTION
2
BLOCKS
0
BLOCK
5
20
100
AcDbEntity
100
AcDbBlockBegin
2
*MODEL_SPACE
0
ENDBLK
5
21
100
AcDbEntity
100
AcDbBlockEnd
0
BLOCK
5
1C
100
AcDbEntity
100
AcDbBlockBegin
2
*PAPER_SPACE
0
ENDBLK
5
1D
100
AcDbEntity
100
AcDbBlockEnd
0
ENDSEC
0
SECTION
2
ENTITIES
0
CIRCLE
5
100
100
AcDbEntity
8
0
100
AcDbCircle
10
-29.893697444813213
20
8.9999999999999183
30
0
40
13.5
210
2.4651903288156619e-32
220
6.2483464307677292e-48
230
1
0
LWPOLYLINE
5
101
100
AcDbEntity
8
0
100
AcDbPolyline
90
4
70
1
43
0.0
10
237.99999999999997
20
68.999999999999986
10
237.99999999999997
20
-236
10
-55.000000000000007
20
-236
10
-55
20
69
0
LWPOLYLINE
5
102
100
AcDbEntity
8
0
100
AcDbPolyline
90
4
70
1
43
0.0
10
230.49999999999986
20
63.250000000000306
10
229.49999999999773
20
63.250000000000348
42
0.99999999999999989
10
229.49999999999645
20
59.750000000000355
10
230.49999999999986
20
59.750000000000291
42
0.99999999999999989
0
LWPOLYLINE
5
103
100
AcDbEntity
8
0
100
AcDbPolyline
90
4
70
1
43
0.0
10
230.55000326335426
20
-226.75000298023218
10
229.55000326334681
20
-226.7500029802321
42
0.99999999999999989
10
229.55000326336119
20
-230.25000298023213
10
230.55000326335426
20
-230.25000298023218
42
0.99999999999999989
0
LWPOLYLINE
5
104
100
AcDbEntity
8
0
100
AcDbPolyline
90
4
70
1
43
0.0
10
-47.500000000000391
20
59.749999999999915
10
-46.499998960644085
20
59.749999999999908
42
0.99999940605290094
10
-46.499998960644085
20
63.249999999999901
10
-47.500000000000391
20
63.249999999999929
42
0.99999999999999989
0
LWPOLYLINE
5
105
100
AcDbEntity
8
0
100
AcDbPolyline
90
4
70
1
43
0.0
10
-47.548752867710682
20
-230.2500025335209
10
-46.550004046076808
20
-230.25000298023167
42
1.0000002236415846
10
-46.550003263351833
20
-226.75000298023218
10
-47.550003263354377
20
-226.75000298023218
42
1.000357319759686
0
CIRCLE
5
106
100
AcDbEntity
8
0
100
AcDbCircle
10
-29.89369744481321
20
8.9999999999999183
30
-6.5000000000000036
40
13.5
210
-4.4408920985006262e-16
220
-1.1256020262914926e-31
230
1
0
LINE
5
107
100
AcDbEntity
8
0
100
AcDbLine
10
237.99999999999997
20
69
30
-6.5000000000000036
11
237.99999999999997
21
-236
31
-6.5000000000000036
0
LINE
5
108
100
AcDbEntity
8
0
100
AcDbLine
10
237.99999999999997
20
-236
30
-6.5000000000000036
11
-55.000000000000036
21
-236
31
-6.4999999999999982
0
LINE
5
109
100
AcDbEntity
8
0
100
AcDbLine
10
-55.000000000000036
20
-236
30
-6.4999999999999982
11
-55.000000000000028
21
68.999999999999986
31
-6.5000000000000036
0
LINE
5
110
100
AcDbEntity
8
0
100
AcDbLine
10
-55.000000000000028
20
68.999999999999986
30
-6.5000000000000036
11
237.99999999999997
21
69
31
-6.5000000000000036
0
LINE
5
111
100
AcDbEntity
8
0
100
AcDbLine
10
-47.500000000000391
20
59.749999999999901
30
-6.5000000000000391
11
-46.499998960644085
21
59.749999999999908
31
-6.5000000000000391
0
ARC
5
112
100
AcDbEntity
8
0
100
AcDbCircle
10
-46.500000000000398
20
61.499999999999908
30
-6.50000000000004
40
1.7500000000003069
210
-6.3441391050730883e-16
220
6.3441278013889038e-16
230
1
100
AcDbArc
50
-89.999965971011378
51
89.999965972999206
0
LINE
5
113
100
AcDbEntity
8
0
100
AcDbLine
10
-46.499998960704801
20
63.249999999999595
30
-6.5000000000000409
11
-47.500000000000391
21
63.249999999999915
31
-6.5000000000000391
0
ARC
5
114
100
AcDbEntity
8
0
100
AcDbCircle
10
-47.500000000000313
20
61.499999999999915
30
-6.5000000000000213
40
1.7499999999999982
210
-4.6350353849695271e-28
220
1.0150610510858585e-14
230
1
100
AcDbArc
50
90.000000000002558
51
269.99999999999744
0
LINE
5
115
100
AcDbEntity
8
0
100
AcDbLine
10
230.49999999999986
20
63.250000000000355
30
-6.4999999999998792
11
229.49999999999773
21
63.250000000000348
31
-6.4999999999998792
0
ARC
5
116
100
AcDbEntity
8
0
100
AcDbCircle
10
229.49999999999986
20
61.500000000000348
30
-6.4999999999998783
40
1.7499999999999982
210
-6.3441315693043573e-16
220
6.344131569278888e-16
230
1
100
AcDbArc
50
90.00000000006979
51
270.00000000006975
0
LINE
5
117
100
AcDbEntity
8
0
100
AcDbLine
10
229.50000000000199
20
59.750000000000341
30
-6.4999999999998774
11
230.49999999999986
21
59.750000000000341
31
-6.4999999999998792
0
ARC
5
118
100
AcDbEntity
8
0
100
AcDbCircle
10
230.49999999999994
20
61.500000000000284
30
-6.4999999999999503
40
1.7499999999999449
210
1.6485427416152326e-27
220
4.0602442043435572e-14
230
1
100
AcDbArc
50
-90.000000000002814
51
90.000000000002814
0
LINE
5
119
100
AcDbEntity
8
0
100
AcDbLine
10
230.55000326335426
20
-226.7500029802321
30
-6.4999999999999503
11
229.55000326334681
21
-226.7500029802321
31
-6.4999999999999503
0
ARC
5
120
100
AcDbEntity
8
0
100
AcDbCircle
10
229.55000326335423
20
-228.50000298023213
30
-6.4999999999999494
40
1.7500000000000071
210
-6.3441315693143384e-16
220
6.3441315692596654e-16
230
1
100
AcDbArc
50
90.000000000242878
51
270.00000000024284
0
LINE
5
121
100
AcDbEntity
8
0
100
AcDbLine
10
229.55000326336165
20
-230.25000298023213
30
-6.4999999999999485
11
230.55000326335426
21
-230.25000298023213
31
-6.4999999999999503
0
ARC
5
122
100
AcDbEntity
8
0
100
AcDbCircle
10
230.55000326335426
20
-228.50000298023218
30
-6.4999999999999325
40
1.7499999999999361
210
4.0788932203406718e-32
220
-1.0150610510858945e-14
230
1
100
AcDbArc
50
-90
51
90
0
LINE
5
123
100
AcDbEntity
8
0
100
AcDbLine
10
-47.548752867710668
20
-230.25000253354432
30
-6.5000000000001101
11
-46.550004046076808
21
-230.25000298023167
31
-6.5000000000001101
0
ARC
5
124
100
AcDbEntity
8
0
100
AcDbCircle
10
-46.550003263354384
20
-228.50000298023218
30
-6.5000000000001101
40
1.7499999999996494
210
-6.3441301505209779e-16
220
2.8375388353728921e-22
230
1
100
AcDbArc
50
-90.000025626680795
51
90.000000000753971
0
LINE
5
125
100
AcDbEntity
8
0
100
AcDbLine
10
-46.550003263377413
20
-226.75000298023218
30
-6.5000000000001101
11
-47.550003263354377
21
-226.75000298023218
31
-6.5000000000001101
0
ARC
5
126
100
AcDbEntity
8
0
100
AcDbCircle
10
-47.55000326335437
20
-228.50000298023218
30
-6.5000000000000036
40
1.7500000000000071
210
-3.0900754508973599e-28
220
6.0903663065151203e-14
230
1
100
AcDbArc
50
90.000000000000242
51
270.04093851382896
0
ENDSEC
0
SECTION
2
OBJECTS
0
DICTIONARY
5
C
100
AcDbDictionary
3
ACAD_GROUP
350
D
3
ACAD_MLINESTYLE
350
17
0
DICTIONARY
5
D
100
AcDbDictionary
0
DICTIONARY
5
1A
330
C
100
AcDbDictionary
0
DICTIONARY
5
17
100
AcDbDictionary
0
ENDSEC
0
EOF
