0
SECTION
2
HEADER
9
$INSUNITS
70
4
9
$ACADVER
1
AC1014
9
$HANDSEED
5
FFFF
0
ENDSEC
0
SECTION
2
TABLES
0
TABLE
2
VPORT
5
8
100
AcDbSymbolTable
0
ENDTAB
0
TABLE
2
LTYPE
5
5
100
AcDbSymbolTable
0
LTYPE
5
14
100
AcDbSymbolTableRecord
100
AcDbLinetypeTableRecord
2
BYBLOCK
70
0
0
LTYPE
5
15
100
AcDbSymbolTableRecord
100
AcDbLinetypeTableRecord
2
BYLAYER
70
0
0
ENDTAB
0
TABLE
2
LAYER
5
2
100
AcDbSymbolTable
70
2
0
LAYER
5
50
100
AcDbSymbolTableRecord
100
AcDbLayerTableRecord
2
0
70
0
6
CONTINUOUS
0
ENDTAB
0
TABLE
2
STYLE
5
3
100
AcDbSymbolTable
70
1
0
STYLE
5
11
100
AcDbSymbolTableRecord
100
AcDbTextStyleTableRecord
2
STANDARD
70
0
0
ENDTAB
0
TABLE
2
VIEW
5
6
100
AcDbSymbolTable
70
0
0
ENDTAB
0
TABLE
2
UCS
5
7
100
AcDbSymbolTable
70
0
0
ENDTAB
0
TABLE
2
APPID
5
9
100
AcDbSymbolTable
70
2
0
APPID
5
12
100
AcDbSymbolTableRecord
100
AcDbRegAppTableRecord
2
ACAD
70
0
0
ENDTAB
0
TABLE
2
DIMSTYLE
5
A
100
AcDbSymbolTable
70
1
0
ENDTAB
0
TABLE
2
BLOCK_RECORD
5
1
100
AcDbSymbolTable
70
1
0
BLOCK_RECORD
5
1F
100
AcDbSymbolTableRecord
100
AcDbBlockTableRecord
2
*MODEL_SPACE
0
BLOCK_RECORD
5
1B
100
AcDbSymbolTableRecord
100
AcDbBlockTableRecord
2
*PAPER_SPACE
0
ENDTAB
0
ENDSEC
0
SECTION
2
BLOCKS
0
BLOCK
5
20
100
AcDbEntity
100
AcDbBlockBegin
2
*MODEL_SPACE
0
ENDBLK
5
21
100
AcDbEntity
100
AcDbBlockEnd
0
BLOCK
5
1C
100
AcDbEntity
100
AcDbBlockBegin
2
*PAPER_SPACE
0
ENDBLK
5
1D
100
AcDbEntity
100
AcDbBlockEnd
0
ENDSEC
0
SECTION
2
ENTITIES
0
LWPOLYLINE
5
100
100
AcDbEntity
8
0
100
AcDbPolyline
90
16
70
1
43
0.0
10
34.798920106588305
20
294.59538701695965
42
-0.41421356237308982
10
32.798920106588277
20
292.59538701695965
10
-2.2010798934117037
20
292.59538701695965
42
0.41421356237309009
10
-4.2010798934117055
20
290.59538701695965
10
-4.2010798934117126
20
193.59538701695959
42
0.41421356237309503
10
-2.2010798934117126
20
191.59538701695965
10
146.7989201065883
20
191.59538701695962
42
0.41421356237309503
10
148.7989201065883
20
193.59538701695959
10
148.7989201065883
20
290.59538701695959
42
0.41421356237310025
10
146.7989201065883
20
292.59538701695965
10
111.7989201065883
20
292.59538701695965
42
-0.41421356237309503
10
109.7989201065883
20
294.59538701695965
10
109.7989201065883
20
313.59538701695965
42
0.41421356237309503
10
107.7989201065883
20
315.59538701695959
10
36.798920106588291
20
315.59538701695959
42
0.41421356237309503
10
34.798920106588284
20
313.59538701695959
0
LWPOLYLINE
5
101
100
AcDbEntity
8
0
100
AcDbPolyline
90
4
70
1
43
0.0
10
29.042979171667966
20
113.74449697704328
10
29.042979171667966
20
118.7444969770433
42
1.0000049769388788
10
25.542979171754645
20
118.74447955780541
10
25.542979171667952
20
113.7444969770433
42
0.99999999999999989
0
LWPOLYLINE
5
102
100
AcDbEntity
8
0
100
AcDbPolyline
90
4
70
1
43
0.0
10
-64.989996185302914
20
368.6154776873351
10
-64.989996185302914
20
373.6154776873351
42
0.99999999999999989
10
-68.489996185302857
20
373.61547768733476
10
-68.489996185302857
20
368.61547768733499
42
0.99999999999999989
0
LWPOLYLINE
5
103
100
AcDbEntity
8
0
100
AcDbPolyline
90
4
70
1
43
0.0
10
-64.989996185302914
20
348.61547768733453
10
-64.989996185302914
20
353.61547768733499
42
0.99999999999999989
10
-68.489996185302857
20
353.61547768733465
10
-68.489996185302857
20
348.61547768733493
42
0.99999999999999989
0
LWPOLYLINE
5
104
100
AcDbEntity
8
0
100
AcDbPolyline
90
4
70
1
43
0.0
10
213.06000381469721
20
368.61547768733476
10
213.06000381469715
20
373.61547710604447
42
1.0000003320319004
10
209.56000381469727
20
373.61547710648148
10
209.56000381469727
20
368.61547768733476
42
0.99999999999999989
0
LWPOLYLINE
5
105
100
AcDbEntity
8
0
100
AcDbPolyline
90
4
70
1
43
0.0
10
213.06000381469718
20
348.61547768733425
10
213.06000381469715
20
353.61547710604452
42
1.0000003320319004
10
209.56000381469727
20
353.61547710648148
10
209.56000381469727
20
348.61547768733419
42
0.99999999999999989
0
LWPOLYLINE
5
106
100
AcDbEntity
8
0
100
AcDbPolyline
90
6
70
1
43
0.0
10
59.042979171667973
20
113.7444969770433
10
59.042979171667973
20
116.02456568376735
42
0.063087608576675419
10
59.042979171667973
20
116.46442827031932
10
59.042979171667973
20
118.74449697704327
42
1.0000049769333017
10
55.542979171754645
20
118.74447955780541
10
55.542979171667959
20
113.7444969770433
42
0.99999999999999989
0
LWPOLYLINE
5
107
100
AcDbEntity
8
0
100
AcDbPolyline
90
6
70
1
43
0.0
10
89.04297917166798
20
113.74449697704328
10
89.04297917166798
20
115.93104633580106
42
0.090287380471484824
10
89.04297917166798
20
116.55794761828552
10
89.04297917166798
20
118.74449697704327
42
1.0000049769333017
10
85.542979171754638
20
118.74447955780541
10
85.542979171667952
20
113.74449697707362
42
0.99999999999999989
0
LWPOLYLINE
5
108
100
AcDbEntity
8
0
100
AcDbPolyline
90
6
70
1
43
0.0
10
119.04297917166798
20
113.7444969770433
10
119.04297917166798
20
115.94409512047233
42
0.086470864125690508
10
119.04297917166798
20
116.54489883361428
10
119.04297917166798
20
118.74449697704327
42
1.0000049769333017
10
115.54297917175464
20
118.74447955780541
10
115.54297917166795
20
113.7444969770433
42
0.99999999999999989
0
LWPOLYLINE
5
109
100
AcDbEntity
8
0
100
AcDbPolyline
90
4
70
1
43
0.0
10
-74.201079893411688
20
101.96283701695968
10
-74.201079893411688
20
381.22793701695963
10
218.7989201065883
20
381.22793701695963
10
218.7989201065883
20
101.9628370169597
0
LINE
5
110
100
AcDbEntity
8
0
100
AcDbLine
10
-74.201079893411702
20
101.9628370169597
30
-6.4999999999999769
11
-74.201079893411702
21
381.22793701695963
31
-6.4999999999999769
0
LINE
5
111
100
AcDbEntity
8
0
100
AcDbLine
10
-74.201079893411702
20
381.22793701695963
30
-6.4999999999999769
11
218.7989201065883
21
381.22793701695963
31
-6.4999999999999858
0
LINE
5
112
100
AcDbEntity
8
0
100
AcDbLine
10
218.7989201065883
20
381.22793701695963
30
-6.4999999999999858
11
218.7989201065883
21
101.96283701695968
31
-6.4999999999999858
0
LINE
5
113
100
AcDbEntity
8
0
100
AcDbLine
10
218.7989201065883
20
101.96283701695968
30
-6.4999999999999858
11
-74.201079893411702
21
101.9628370169597
31
-6.4999999999999769
0
LINE
5
114
100
AcDbEntity
8
0
100
AcDbLine
10
119.04297917166798
20
113.7444969770433
30
-6.4999999999999858
11
119.04297917166798
21
115.94409512047233
31
-6.4999999999999938
0
ARC
5
115
100
AcDbEntity
8
0
100
AcDbCircle
10
117.31895517979062
20
116.24449697704328
30
-6.4999999999999947
40
1.7500000000000013
210
-6.4405417662181985e-16
220
-4.7212737395751511e-19
230
1
100
AcDbArc
50
-9.8842445352164479
51
9.8842445352178103
0
LINE
5
116
100
AcDbEntity
8
0
100
AcDbLine
10
119.04297917166798
20
116.54489883361428
30
-6.4999999999999947
11
119.04297917166798
21
118.74449697704333
31
-6.4999999999999858
0
ARC
5
117
100
AcDbEntity
8
0
100
AcDbCircle
10
117.29297917166797
20
118.7444969770433
30
-6.4999999999999858
40
1.7500000000000071
210
1.1269441503157266e-30
220
-1.1102230246251565e-16
230
1
100
AcDbArc
50
0
51
180.00057031376608
0
LINE
5
118
100
AcDbEntity
8
0
100
AcDbLine
10
115.54297917175464
20
118.74447955780541
30
-6.4999999999999858
11
115.54297917166795
21
113.7444969770433
31
-6.499999999999984
0
ARC
5
119
100
AcDbEntity
8
0
100
AcDbCircle
10
117.29297917166797
20
113.7444969770433
30
-6.4999999999999858
40
1.7500000000000071
210
1.2688263138573167e-15
220
-1.1102230246251565e-16
230
1
100
AcDbArc
50
-180
51
0
0
LINE
5
120
100
AcDbEntity
8
0
100
AcDbLine
10
89.04297917166798
20
113.7444969770433
30
-6.4999999999999858
11
89.04297917166798
21
115.93104633580108
31
-6.4999999999999902
0
ARC
5
121
100
AcDbEntity
8
0
100
AcDbCircle
10
87.321279808972861
20
116.2444969770433
30
-6.5000000000000036
40
1.7499999999999831
210
-7.5097284271617173e-15
220
1.2543654301867943e-15
230
1
100
AcDbArc
50
-10.318195052171308
51
10.318195052172205
0
LINE
5
122
100
AcDbEntity
8
0
100
AcDbLine
10
89.04297917166798
20
116.55794761828554
30
-6.5000000000000036
11
89.04297917166798
21
118.74449697704333
31
-6.4999999999999902
0
ARC
5
123
100
AcDbEntity
8
0
100
AcDbCircle
10
87.292979171667966
20
118.7444969770433
30
-6.4999999999999858
40
1.7500000000000071
210
2.5376526277146345e-15
220
-1.1102230246248989e-16
230
1
100
AcDbArc
50
0
51
180.00057031376608
0
LINE
5
124
100
AcDbEntity
8
0
100
AcDbLine
10
85.542979171754638
20
118.74447955780541
30
-6.4999999999999858
11
85.542979171667952
21
113.74449697707364
31
-6.4999999999999822
0
ARC
5
125
100
AcDbEntity
8
0
100
AcDbCircle
10
87.292979171667966
20
113.7444969770433
30
-6.4999999999999858
40
1.7500000000000071
210
1.9032394707840503e-15
220
-1.1102230249551257e-16
230
1
100
AcDbArc
50
-180
51
0
0
LINE
5
126
100
AcDbEntity
8
0
100
AcDbLine
10
59.042979171667973
20
113.7444969770433
30
-6.4999999999999858
11
59.042979171667973
21
116.02456568376735
31
-6.4999999999999964
0
ARC
5
127
100
AcDbEntity
8
0
100
AcDbCircle
10
57.306854111011923
20
116.2444969770433
30
-6.5000000000000036
40
1.7500000000000013
210
-3.790251863934656e-15
220
3.6823727705755019e-16
230
1
100
AcDbArc
50
-7.2197392677911214
51
7.2197392677933916
0
LINE
5
128
100
AcDbEntity
8
0
100
AcDbLine
10
59.042979171667973
20
116.46442827031932
30
-6.5000000000000036
11
59.042979171667973
21
118.7444969770433
31
-6.4999999999999858
0
ARC
5
129
100
AcDbEntity
8
0
100
AcDbCircle
10
57.292979171667966
20
118.7444969770433
30
-6.4999999999999858
40
1.7500000000000071
210
0
220
-1.1102230246251565e-16
230
1
100
AcDbArc
50
0
51
180.00057031312704
0
LINE
5
130
100
AcDbEntity
8
0
100
AcDbLine
10
55.542979171754652
20
118.74447955780541
30
-6.4999999999999858
11
55.542979171667959
21
113.7444969770433
31
-6.499999999999984
0
ARC
5
131
100
AcDbEntity
8
0
100
AcDbCircle
10
57.292979171667966
20
113.7444969770433
30
-6.4999999999999858
40
1.7500000000000071
210
1.2688263138573167e-15
220
-1.1102230246251565e-16
230
1
100
AcDbArc
50
-180
51
0
0
LINE
5
132
100
AcDbEntity
8
0
100
AcDbLine
10
213.06000381469718
20
348.61547768733419
30
-6.4999999999999503
11
213.06000381469715
21
353.61547710604447
31
-6.4999999999999503
0
ARC
5
133
100
AcDbEntity
8
0
100
AcDbCircle
10
211.31000381469727
20
353.61547768733476
30
-6.4999999999999325
40
1.7499999999999971
210
1.0150610455541305e-14
220
-1.6653682538001374e-16
230
1
100
AcDbArc
50
-1.9014441905268218e-05
51
180.00001901444193
0
LINE
5
134
100
AcDbEntity
8
0
100
AcDbLine
10
209.56000381469738
20
353.61547710648142
30
-6.4999999999999325
11
209.56000381469809
21
348.61547768733419
31
-6.4999999999999689
0
ARC
5
135
100
AcDbEntity
8
0
100
AcDbCircle
10
211.31000381469727
20
348.61547768733476
30
-6.4999999999999503
40
1.7499999999991545
210
-1.0785023667792413e-14
220
-1.1102230246601884e-16
230
1
100
AcDbArc
50
180
51
360
0
LINE
5
136
100
AcDbEntity
8
0
100
AcDbLine
10
213.06000381469721
20
368.61547768733476
30
-6.499999999999968
11
213.06000381469715
21
373.61547710604447
31
-6.4999999999999485
0
ARC
5
137
100
AcDbEntity
8
0
100
AcDbCircle
10
211.31000381469727
20
373.61547768733476
30
-6.4999999999999325
40
1.7499999999999971
210
8.8817841416840506e-15
220
-1.6653640391923255e-16
230
1
100
AcDbArc
50
-1.9014441905268218e-05
51
180.00001901444193
0
LINE
5
138
100
AcDbEntity
8
0
100
AcDbLine
10
209.56000381469738
20
373.61547710648148
30
-6.4999999999999325
11
209.56000381469727
21
368.61547768733482
31
-6.4999999999999902
0
ARC
5
139
100
AcDbEntity
8
0
100
AcDbCircle
10
211.31000381469727
20
368.61547768733476
30
-6.4999999999999147
40
1.7499999999999716
210
-4.3140094671149645e-14
220
-1.1102230246076406e-16
230
1
100
AcDbArc
50
-180
51
0
0
LINE
5
140
100
AcDbEntity
8
0
100
AcDbLine
10
-64.989996185302914
20
348.61547768733442
30
-6.4999999999999858
11
-64.989996185302914
21
353.61547768733493
31
-6.4999999999999698
0
ARC
5
141
100
AcDbEntity
8
0
100
AcDbCircle
10
-66.739996185302886
20
353.61547768733493
30
-6.5000000000000036
40
1.7499999999999716
210
-1.9032394707860134e-14
220
-1.1102230246251565e-16
230
1
100
AcDbArc
50
0
51
180
0
LINE
5
142
100
AcDbEntity
8
0
100
AcDbLine
10
-68.489996185302857
20
353.61547768733465
30
-6.5000000000000036
11
-68.489996185302857
21
348.61547768733493
31
-6.4999999999999822
0
ARC
5
143
100
AcDbEntity
8
0
100
AcDbCircle
10
-66.739996185302886
20
348.61547768733493
30
-6.5000000000000213
40
1.7499999999999716
210
2.2204460492503491e-14
220
-1.1102230246251565e-16
230
1
100
AcDbArc
50
180
51
360
0
LINE
5
144
100
AcDbEntity
8
0
100
AcDbLine
10
-64.989996185302914
20
368.61547768733499
30
-6.5000000000000036
11
-64.989996185302914
21
373.61547768733499
31
-6.49999999999996
0
ARC
5
145
100
AcDbEntity
8
0
100
AcDbCircle
10
-66.739996185302886
20
373.6154776873351
30
-6.4999999999999325
40
1.7499999999999716
210
1.5860328923216775e-14
220
-1.1102230246315961e-16
230
1
100
AcDbArc
50
0
51
180
0
LINE
5
146
100
AcDbEntity
8
0
100
AcDbLine
10
-68.489996185302857
20
373.61547768733476
30
-6.4999999999999325
11
-68.489996185302857
21
368.61547768733499
31
-6.5
0
ARC
5
147
100
AcDbEntity
8
0
100
AcDbCircle
10
-66.739996185302886
20
368.61547768733499
30
-6.4999999999999147
40
1.7499999999999716
210
-4.8849813083507677e-14
220
-1.1102230246251565e-16
230
1
100
AcDbArc
50
-180
51
0
0
LINE
5
148
100
AcDbEntity
8
0
100
AcDbLine
10
29.042979171667966
20
113.7444969770433
30
-6.4999999999999858
11
29.042979171667966
21
118.74449697704333
31
-6.4999999999999902
0
ARC
5
149
100
AcDbEntity
8
0
100
AcDbCircle
10
27.292979171667959
20
118.7444969770433
30
-6.4999999999999858
40
1.7500000000000071
210
2.5376526277146345e-15
220
-1.1102230246248989e-16
230
1
100
AcDbArc
50
0
51
180.00057031312704
0
LINE
5
150
100
AcDbEntity
8
0
100
AcDbLine
10
25.542979171754645
20
118.74447955780541
30
-6.4999999999999858
11
25.542979171667952
21
113.7444969770433
31
-6.499999999999984
0
ARC
5
151
100
AcDbEntity
8
0
100
AcDbCircle
10
27.292979171667959
20
113.7444969770433
30
-6.4999999999999858
40
1.7500000000000071
210
1.2688263138573167e-15
220
-1.1102230246251565e-16
230
1
100
AcDbArc
50
-180
51
0
0
ARC
5
152
100
AcDbEntity
8
0
100
AcDbCircle
10
32.798920106588284
20
294.59538701695965
30
-6.4999999999999503
40
1.9999999999999929
210
0
220
-6.1062266354383831e-15
230
1
100
AcDbArc
50
270
51
360
0
LINE
5
153
100
AcDbEntity
8
0
100
AcDbLine
10
32.798920106588284
20
292.59538701695965
30
-6.4999999999999627
11
-2.2010798934117037
21
292.59538701695953
31
-6.4999999999999858
0
ARC
5
154
100
AcDbEntity
8
0
100
AcDbCircle
10
-2.2010798934117468
20
290.59538701695965
30
-6.4999999999999503
40
1.9999999999998863
210
-1.581250762230278e-14
220
1.7763568394003855e-14
230
1
100
AcDbArc
50
89.999999999998778
51
180
0
LINE
5
155
100
AcDbEntity
8
0
100
AcDbLine
10
-4.2010798934117046
20
290.59538701695965
30
-6.4999999999999813
11
-4.2010798934117055
21
193.59538701695959
31
-6.4999999999999858
0
ARC
5
156
100
AcDbEntity
8
0
100
AcDbCircle
10
-2.2010798934117242
20
193.59538701695959
30
-6.5000000000000302
40
1.9999999999999813
210
2.2204460492503339e-14
220
-6.4035076718553522e-15
230
1
100
AcDbArc
50
180
51
270.00000000000034
0
LINE
5
157
100
AcDbEntity
8
0
100
AcDbLine
10
-2.2010798934117122
20
191.59538701695962
30
-6.5000000000000435
11
146.7989201065883
21
191.59538701695959
31
-6.4999999999999858
0
ARC
5
158
100
AcDbEntity
8
0
100
AcDbCircle
10
146.7989201065883
20
193.59538701695959
30
-6.5000000000000302
40
2.0000000000000284
210
6.4035076718555494e-15
220
2.2204460492502758e-14
230
1
100
AcDbArc
50
-90
51
0
0
LINE
5
159
100
AcDbEntity
8
0
100
AcDbLine
10
148.7989201065883
20
193.59538701695959
30
-6.5000000000000435
11
148.7989201065883
21
290.59538701695965
31
-6.4999999999999858
0
ARC
5
160
100
AcDbEntity
8
0
100
AcDbCircle
10
146.7989201065883
20
290.59538701695965
30
-6.4999999999999503
40
1.9999999999999751
210
1.7763568394002726e-14
220
-6.4035076718553498e-15
230
1
100
AcDbArc
50
0
51
90
0
LINE
5
161
100
AcDbEntity
8
0
100
AcDbLine
10
146.7989201065883
20
292.59538701695959
30
-6.4999999999999369
11
111.7989201065883
21
292.59538701695953
31
-6.4999999999999858
0
ARC
5
162
100
AcDbEntity
8
0
100
AcDbCircle
10
111.7989201065883
20
294.59538701695965
30
-6.4999999999999503
40
1.9999999999999929
210
-6.1062266354383831e-15
220
-1.1102230246247598e-16
230
1
100
AcDbArc
50
180
51
270
0
LINE
5
163
100
AcDbEntity
8
0
100
AcDbLine
10
109.7989201065883
20
294.59538701695965
30
-6.4999999999999627
11
109.7989201065883
21
313.59538701695965
31
-6.4999999999999849
0
ARC
5
164
100
AcDbEntity
8
0
100
AcDbCircle
10
107.79892010658833
20
313.59538701695965
30
-6.4999999999999325
40
1.9999999999999751
210
2.609024107869139e-14
220
-6.4035076718558136e-15
230
1
100
AcDbArc
50
0
51
90.00000000000081
0
LINE
5
165
100
AcDbEntity
8
0
100
AcDbLine
10
107.7989201065883
20
315.59538701695965
30
-6.4999999999999192
11
36.798920106588291
21
315.59538701695953
31
-6.4999999999999858
0
ARC
5
166
100
AcDbEntity
8
0
100
AcDbCircle
10
36.798920106588284
20
313.59538701695959
30
-6.4999999999999503
40
1.9999999999999574
210
6.40350767185545e-15
220
1.7763568394002855e-14
230
1
100
AcDbArc
50
89.999999999999801
51
180
0
LINE
5
167
100
AcDbEntity
8
0
100
AcDbLine
10
34.798920106588291
20
313.59538701695959
30
-6.4999999999999369
11
34.798920106588291
21
294.59538701695959
31
-6.4999999999999503
0
ENDSEC
0
SECTION
2
OBJECTS
0
DICTIONARY
5
C
100
AcDbDictionary
3
ACAD_GROUP
350
D
3
ACAD_MLINESTYLE
350
17
0
DICTIONARY
5
D
100
AcDbDictionary
0
DICTIONARY
5
1A
330
C
100
AcDbDictionary
0
DICTIONARY
5
17
100
AcDbDictionary
0
ENDSEC
0
EOF
